<?xml version="1.0" encoding="UTF-8" standalone="no"?>
<!-- Created with Inkscape (http://www.inkscape.org/) -->

<svg
   xmlns:dc="http://purl.org/dc/elements/1.1/"
   xmlns:cc="http://creativecommons.org/ns#"
   xmlns:rdf="http://www.w3.org/1999/02/22-rdf-syntax-ns#"
   xmlns:svg="http://www.w3.org/2000/svg"
   xmlns="http://www.w3.org/2000/svg"
   version="1.1"
   width="936"
   height="643.5"
   id="svg3039"
   xml:space="preserve"><metadata
     id="metadata3045"><rdf:RDF><cc:Work
         rdf:about=""><dc:format>image/svg+xml</dc:format><dc:type
           rdf:resource="http://purl.org/dc/dcmitype/StillImage" /><dc:title></dc:title></cc:Work></rdf:RDF></metadata><defs
     id="defs3043"><clipPath
       id="clipPath3057"><path
         d="m 68.700625,54.185 660.311245,0 0,441.5925 -660.311245,0 0,-441.5925 z"
         id="path3059" /></clipPath><clipPath
       id="clipPath3081"><path
         d="m -204,-304 1255,0 0,1215 -1255,0 0,-1215 z"
         id="path3083" /></clipPath><clipPath
       id="clipPath3091"><path
         d="m 68.700625,54.185 660.311245,0 0,441.5925 -660.311245,0 0,-441.5925 z"
         id="path3093" /></clipPath><clipPath
       id="clipPath3115"><path
         d="m -204,-304 1255,0 0,1215 -1255,0 0,-1215 z"
         id="path3117" /></clipPath><clipPath
       id="clipPath3125"><path
         d="m 68.700625,54.185 660.311245,0 0,441.5925 -660.311245,0 0,-441.5925 z"
         id="path3127" /></clipPath><clipPath
       id="clipPath3149"><path
         d="m -204,-304 1255,0 0,1215 -1255,0 0,-1215 z"
         id="path3151" /></clipPath><clipPath
       id="clipPath3159"><path
         d="m 68.700625,54.185 660.311245,0 0,441.5925 -660.311245,0 0,-441.5925 z"
         id="path3161" /></clipPath><clipPath
       id="clipPath3183"><path
         d="m -204,-304 1255,0 0,1215 -1255,0 0,-1215 z"
         id="path3185" /></clipPath><clipPath
       id="clipPath3193"><path
         d="m 68.700625,54.185 660.311245,0 0,441.5925 -660.311245,0 0,-441.5925 z"
         id="path3195" /></clipPath><clipPath
       id="clipPath3213"><path
         d="m 68.700625,54.185 660.311245,0 0,441.5925 -660.311245,0 0,-441.5925 z"
         id="path3215" /></clipPath><clipPath
       id="clipPath3233"><path
         d="m 68.700625,54.185 660.311245,0 0,441.5925 -660.311245,0 0,-441.5925 z"
         id="path3235" /></clipPath><clipPath
       id="clipPath3253"><path
         d="m 68.700625,54.185 660.311245,0 0,441.5925 -660.311245,0 0,-441.5925 z"
         id="path3255" /></clipPath><clipPath
       id="clipPath3273"><path
         d="m 68.700625,54.185 660.311245,0 0,441.5925 -660.311245,0 0,-441.5925 z"
         id="path3275" /></clipPath><clipPath
       id="clipPath3315"><path
         d="m 68.700625,54.185 660.311245,0 0,441.5925 -660.311245,0 0,-441.5925 z"
         id="path3317" /></clipPath><clipPath
       id="clipPath3339"><path
         d="m -204,-304 1255,0 0,1215 -1255,0 0,-1215 z"
         id="path3341" /></clipPath><clipPath
       id="clipPath3349"><path
         d="m 68.700625,54.185 660.311245,0 0,441.5925 -660.311245,0 0,-441.5925 z"
         id="path3351" /></clipPath><clipPath
       id="clipPath3373"><path
         d="m -204,-304 1255,0 0,1215 -1255,0 0,-1215 z"
         id="path3375" /></clipPath><clipPath
       id="clipPath3383"><path
         d="m 68.700625,54.185 660.311245,0 0,441.5925 -660.311245,0 0,-441.5925 z"
         id="path3385" /></clipPath><clipPath
       id="clipPath3403"><path
         d="m 68.700625,54.185 660.311245,0 0,441.5925 -660.311245,0 0,-441.5925 z"
         id="path3405" /></clipPath><clipPath
       id="clipPath3423"><path
         d="m 68.700625,54.185 660.311245,0 0,441.5925 -660.311245,0 0,-441.5925 z"
         id="path3425" /></clipPath><clipPath
       id="clipPath3443"><path
         d="m 68.700625,54.185 660.311245,0 0,441.5925 -660.311245,0 0,-441.5925 z"
         id="path3445" /></clipPath><clipPath
       id="clipPath3463"><path
         d="m 68.700625,54.185 660.311245,0 0,441.5925 -660.311245,0 0,-441.5925 z"
         id="path3465" /></clipPath><clipPath
       id="clipPath3483"><path
         d="m 68.700625,54.185 660.311245,0 0,441.5925 -660.311245,0 0,-441.5925 z"
         id="path3485" /></clipPath><clipPath
       id="clipPath3503"><path
         d="m 68.700625,54.185 660.311245,0 0,441.5925 -660.311245,0 0,-441.5925 z"
         id="path3505" /></clipPath><clipPath
       id="clipPath3549"><path
         d="m 68.700625,54.185 660.311245,0 0,441.5925 -660.311245,0 0,-441.5925 z"
         id="path3551" /></clipPath><clipPath
       id="clipPath3559"><path
         d="m 68.700625,54.185 660.311245,0 0,441.5925 -660.311245,0 0,-441.5925 z"
         id="path3561" /></clipPath><clipPath
       id="clipPath3569"><path
         d="m 68.700625,54.185 660.311245,0 0,441.5925 -660.311245,0 0,-441.5925 z"
         id="path3571" /></clipPath><clipPath
       id="clipPath3579"><path
         d="m 68.700625,54.185 660.311245,0 0,441.5925 -660.311245,0 0,-441.5925 z"
         id="path3581" /></clipPath><clipPath
       id="clipPath3589"><path
         d="m 68.700625,54.185 660.311245,0 0,441.5925 -660.311245,0 0,-441.5925 z"
         id="path3591" /></clipPath><clipPath
       id="clipPath3599"><path
         d="m 68.700625,54.185 660.311245,0 0,441.5925 -660.311245,0 0,-441.5925 z"
         id="path3601" /></clipPath><clipPath
       id="clipPath3609"><path
         d="m 68.700625,54.185 660.311245,0 0,441.5925 -660.311245,0 0,-441.5925 z"
         id="path3611" /></clipPath><clipPath
       id="clipPath3619"><path
         d="m 68.700625,54.185 660.311245,0 0,441.5925 -660.311245,0 0,-441.5925 z"
         id="path3621" /></clipPath><clipPath
       id="clipPath3629"><path
         d="m 68.700625,54.185 660.311245,0 0,441.5925 -660.311245,0 0,-441.5925 z"
         id="path3631" /></clipPath><clipPath
       id="clipPath3639"><path
         d="m 68.700625,54.185 660.311245,0 0,441.5925 -660.311245,0 0,-441.5925 z"
         id="path3641" /></clipPath><clipPath
       id="clipPath3649"><path
         d="m 68.700625,54.185 660.311245,0 0,441.5925 -660.311245,0 0,-441.5925 z"
         id="path3651" /></clipPath><clipPath
       id="clipPath3659"><path
         d="m -4.555,-4.555 9.11,0 0,9.11 -9.11,0 0,-9.11 z"
         id="path3661" /></clipPath><clipPath
       id="clipPath3671"><path
         d="m -4.555,-4.555 9.11,0 0,9.11 -9.11,0 0,-9.11 z"
         id="path3673" /></clipPath><clipPath
       id="clipPath3683"><path
         d="m -4.555,-4.555 9.11,0 0,9.11 -9.11,0 0,-9.11 z"
         id="path3685" /></clipPath><clipPath
       id="clipPath3695"><path
         d="m -4.555,-4.555 9.11,0 0,9.11 -9.11,0 0,-9.11 z"
         id="path3697" /></clipPath><clipPath
       id="clipPath3707"><path
         d="m -4.555,-4.555 9.11,0 0,9.11 -9.11,0 0,-9.11 z"
         id="path3709" /></clipPath><clipPath
       id="clipPath3719"><path
         d="m -4.555,-4.555 9.11,0 0,9.11 -9.11,0 0,-9.11 z"
         id="path3721" /></clipPath><clipPath
       id="clipPath3731"><path
         d="m -4.555,-4.555 9.11,0 0,9.11 -9.11,0 0,-9.11 z"
         id="path3733" /></clipPath><clipPath
       id="clipPath3743"><path
         d="m -4.555,-4.555 9.11,0 0,9.11 -9.11,0 0,-9.11 z"
         id="path3745" /></clipPath><clipPath
       id="clipPath3755"><path
         d="m -4.555,-4.555 9.11,0 0,9.11 -9.11,0 0,-9.11 z"
         id="path3757" /></clipPath><clipPath
       id="clipPath3767"><path
         d="m -4.555,-4.555 9.11,0 0,9.11 -9.11,0 0,-9.11 z"
         id="path3769" /></clipPath><clipPath
       id="clipPath3777"><path
         d="m 68.700625,54.185 660.311245,0 0,441.5925 -660.311245,0 0,-441.5925 z"
         id="path3779" /></clipPath></defs><g
     transform="matrix(1.25,0,0,-1.25,0,643.5)"
     id="g3047"><path
       d="m 0,0 748.8,0 0,514.8 L 0,514.8 0,0 z"
       id="path3049"
       style="fill:#ffffff;fill-opacity:1;fill-rule:nonzero;stroke:none" /><path
       d="m 68.700625,54.185 660.311255,0 0,441.5925 -660.311255,0 0,-441.5925 z"
       id="path3051"
       style="fill:#eaeaf2;fill-opacity:1;fill-rule:nonzero;stroke:none" /><g
       id="g3053"><g
         clip-path="url(#clipPath3057)"
         id="g3055"><path
           d="m 68.700625,54.185 0,441.5925"
           id="path3061"
           style="fill:none;stroke:#ffffff;stroke-width:1.29999995;stroke-linecap:round;stroke-linejoin:round;stroke-miterlimit:10;stroke-opacity:1;stroke-dasharray:none" /></g></g><g
       id="g3063"><path
         d="m 68.700625,54.185 0,0"
         id="path3065"
         style="fill:#262626;fill-opacity:1;fill-rule:nonzero;stroke:#262626;stroke-width:1.29999995;stroke-linecap:butt;stroke-linejoin:round;stroke-miterlimit:10;stroke-opacity:1;stroke-dasharray:none" /><path
         d="m 68.700625,495.7775 0,0"
         id="path3067"
         style="fill:#262626;fill-opacity:1;fill-rule:nonzero;stroke:#262626;stroke-width:1.29999995;stroke-linecap:butt;stroke-linejoin:round;stroke-miterlimit:10;stroke-opacity:1;stroke-dasharray:none" /><g
         transform="translate(58.2475,35.663125)"
         id="g3069"><text
           transform="matrix(1,0,0,-1,7.5917969,0)"
           id="text3071"><tspan
             x="0 7.2280002"
             y="0"
             id="tspan3073"
             style="font-size:13px;font-variant:normal;font-weight:normal;writing-mode:lr-tb;fill:#262626;fill-opacity:1;fill-rule:nonzero;stroke:none;font-family:LiberationSans;-inkscape-font-specification:LiberationSans">40</tspan></text>
<g
           transform="scale(0.013,0.013)"
           id="g3075"><g
             id="g3077"><g
               clip-path="url(#clipPath3081)"
               id="g3079"><path
                 d="m 49,297 0,71 486,0 0,-71 -486,0"
                 id="path3085"
                 style="fill:#262626;fill-opacity:1;fill-rule:nonzero;stroke:none" /></g></g></g></g></g><g
       id="g3087"><g
         clip-path="url(#clipPath3091)"
         id="g3089"><path
           d="m 151.23953,54.185 0,441.5925"
           id="path3095"
           style="fill:none;stroke:#ffffff;stroke-width:1.29999995;stroke-linecap:round;stroke-linejoin:round;stroke-miterlimit:10;stroke-opacity:1;stroke-dasharray:none" /></g></g><g
       id="g3097"><path
         d="m 151.23953,54.185 0,0"
         id="path3099"
         style="fill:#262626;fill-opacity:1;fill-rule:nonzero;stroke:#262626;stroke-width:1.29999995;stroke-linecap:butt;stroke-linejoin:round;stroke-miterlimit:10;stroke-opacity:1;stroke-dasharray:none" /><path
         d="m 151.23953,495.7775 0,0"
         id="path3101"
         style="fill:#262626;fill-opacity:1;fill-rule:nonzero;stroke:#262626;stroke-width:1.29999995;stroke-linecap:butt;stroke-linejoin:round;stroke-miterlimit:10;stroke-opacity:1;stroke-dasharray:none" /><g
         transform="translate(140.78641,35.663125)"
         id="g3103"><text
           transform="matrix(1,0,0,-1,7.5917969,0)"
           id="text3105"><tspan
             x="0 7.2280002"
             y="0"
             id="tspan3107"
             style="font-size:13px;font-variant:normal;font-weight:normal;writing-mode:lr-tb;fill:#262626;fill-opacity:1;fill-rule:nonzero;stroke:none;font-family:LiberationSans;-inkscape-font-specification:LiberationSans">30</tspan></text>
<g
           transform="scale(0.013,0.013)"
           id="g3109"><g
             id="g3111"><g
               clip-path="url(#clipPath3115)"
               id="g3113"><path
                 d="m 49,297 0,71 486,0 0,-71 -486,0"
                 id="path3119"
                 style="fill:#262626;fill-opacity:1;fill-rule:nonzero;stroke:none" /></g></g></g></g></g><g
       id="g3121"><g
         clip-path="url(#clipPath3125)"
         id="g3123"><path
           d="m 233.77844,54.185 0,441.5925"
           id="path3129"
           style="fill:none;stroke:#ffffff;stroke-width:1.29999995;stroke-linecap:round;stroke-linejoin:round;stroke-miterlimit:10;stroke-opacity:1;stroke-dasharray:none" /></g></g><g
       id="g3131"><path
         d="m 233.77844,54.185 0,0"
         id="path3133"
         style="fill:#262626;fill-opacity:1;fill-rule:nonzero;stroke:#262626;stroke-width:1.29999995;stroke-linecap:butt;stroke-linejoin:round;stroke-miterlimit:10;stroke-opacity:1;stroke-dasharray:none" /><path
         d="m 233.77844,495.7775 0,0"
         id="path3135"
         style="fill:#262626;fill-opacity:1;fill-rule:nonzero;stroke:#262626;stroke-width:1.29999995;stroke-linecap:butt;stroke-linejoin:round;stroke-miterlimit:10;stroke-opacity:1;stroke-dasharray:none" /><g
         transform="translate(223.32531,35.663125)"
         id="g3137"><text
           transform="matrix(1,0,0,-1,7.5917969,0)"
           id="text3139"><tspan
             x="0 7.2280002"
             y="0"
             id="tspan3141"
             style="font-size:13px;font-variant:normal;font-weight:normal;writing-mode:lr-tb;fill:#262626;fill-opacity:1;fill-rule:nonzero;stroke:none;font-family:LiberationSans;-inkscape-font-specification:LiberationSans">20</tspan></text>
<g
           transform="scale(0.013,0.013)"
           id="g3143"><g
             id="g3145"><g
               clip-path="url(#clipPath3149)"
               id="g3147"><path
                 d="m 49,297 0,71 486,0 0,-71 -486,0"
                 id="path3153"
                 style="fill:#262626;fill-opacity:1;fill-rule:nonzero;stroke:none" /></g></g></g></g></g><g
       id="g3155"><g
         clip-path="url(#clipPath3159)"
         id="g3157"><path
           d="m 316.31734,54.185 0,441.5925"
           id="path3163"
           style="fill:none;stroke:#ffffff;stroke-width:1.29999995;stroke-linecap:round;stroke-linejoin:round;stroke-miterlimit:10;stroke-opacity:1;stroke-dasharray:none" /></g></g><g
       id="g3165"><path
         d="m 316.31734,54.185 0,0"
         id="path3167"
         style="fill:#262626;fill-opacity:1;fill-rule:nonzero;stroke:#262626;stroke-width:1.29999995;stroke-linecap:butt;stroke-linejoin:round;stroke-miterlimit:10;stroke-opacity:1;stroke-dasharray:none" /><path
         d="m 316.31734,495.7775 0,0"
         id="path3169"
         style="fill:#262626;fill-opacity:1;fill-rule:nonzero;stroke:#262626;stroke-width:1.29999995;stroke-linecap:butt;stroke-linejoin:round;stroke-miterlimit:10;stroke-opacity:1;stroke-dasharray:none" /><g
         transform="translate(305.86422,35.663125)"
         id="g3171"><text
           transform="matrix(1,0,0,-1,7.5917969,0)"
           id="text3173"><tspan
             x="0 7.2280002"
             y="0"
             id="tspan3175"
             style="font-size:13px;font-variant:normal;font-weight:normal;writing-mode:lr-tb;fill:#262626;fill-opacity:1;fill-rule:nonzero;stroke:none;font-family:LiberationSans;-inkscape-font-specification:LiberationSans">10</tspan></text>
<g
           transform="scale(0.013,0.013)"
           id="g3177"><g
             id="g3179"><g
               clip-path="url(#clipPath3183)"
               id="g3181"><path
                 d="m 49,297 0,71 486,0 0,-71 -486,0"
                 id="path3187"
                 style="fill:#262626;fill-opacity:1;fill-rule:nonzero;stroke:none" /></g></g></g></g></g><g
       id="g3189"><g
         clip-path="url(#clipPath3193)"
         id="g3191"><path
           d="m 398.85625,54.185 0,441.5925"
           id="path3197"
           style="fill:none;stroke:#ffffff;stroke-width:1.29999995;stroke-linecap:round;stroke-linejoin:round;stroke-miterlimit:10;stroke-opacity:1;stroke-dasharray:none" /></g></g><g
       id="g3199"><path
         d="m 398.85625,54.185 0,0"
         id="path3201"
         style="fill:#262626;fill-opacity:1;fill-rule:nonzero;stroke:#262626;stroke-width:1.29999995;stroke-linecap:butt;stroke-linejoin:round;stroke-miterlimit:10;stroke-opacity:1;stroke-dasharray:none" /><path
         d="m 398.85625,495.7775 0,0"
         id="path3203"
         style="fill:#262626;fill-opacity:1;fill-rule:nonzero;stroke:#262626;stroke-width:1.29999995;stroke-linecap:butt;stroke-linejoin:round;stroke-miterlimit:10;stroke-opacity:1;stroke-dasharray:none" /><text
         transform="matrix(1,0,0,-1,395.75469,35.663125)"
         id="text3205"><tspan
           x="0"
           y="0"
           id="tspan3207"
           style="font-size:13px;font-variant:normal;font-weight:normal;writing-mode:lr-tb;fill:#262626;fill-opacity:1;fill-rule:nonzero;stroke:none;font-family:LiberationSans;-inkscape-font-specification:LiberationSans">0</tspan></text>
</g><g
       id="g3209"><g
         clip-path="url(#clipPath3213)"
         id="g3211"><path
           d="m 481.39516,54.185 0,441.5925"
           id="path3217"
           style="fill:none;stroke:#ffffff;stroke-width:1.29999995;stroke-linecap:round;stroke-linejoin:round;stroke-miterlimit:10;stroke-opacity:1;stroke-dasharray:none" /></g></g><g
       id="g3219"><path
         d="m 481.39516,54.185 0,0"
         id="path3221"
         style="fill:#262626;fill-opacity:1;fill-rule:nonzero;stroke:#262626;stroke-width:1.29999995;stroke-linecap:butt;stroke-linejoin:round;stroke-miterlimit:10;stroke-opacity:1;stroke-dasharray:none" /><path
         d="m 481.39516,495.7775 0,0"
         id="path3223"
         style="fill:#262626;fill-opacity:1;fill-rule:nonzero;stroke:#262626;stroke-width:1.29999995;stroke-linecap:butt;stroke-linejoin:round;stroke-miterlimit:10;stroke-opacity:1;stroke-dasharray:none" /><text
         transform="matrix(1,0,0,-1,474.91078,35.663125)"
         id="text3225"><tspan
           x="0 7.2280002"
           y="0"
           id="tspan3227"
           style="font-size:13px;font-variant:normal;font-weight:normal;writing-mode:lr-tb;fill:#262626;fill-opacity:1;fill-rule:nonzero;stroke:none;font-family:LiberationSans;-inkscape-font-specification:LiberationSans">10</tspan></text>
</g><g
       id="g3229"><g
         clip-path="url(#clipPath3233)"
         id="g3231"><path
           d="m 563.93406,54.185 0,441.5925"
           id="path3237"
           style="fill:none;stroke:#ffffff;stroke-width:1.29999995;stroke-linecap:round;stroke-linejoin:round;stroke-miterlimit:10;stroke-opacity:1;stroke-dasharray:none" /></g></g><g
       id="g3239"><path
         d="m 563.93406,54.185 0,0"
         id="path3241"
         style="fill:#262626;fill-opacity:1;fill-rule:nonzero;stroke:#262626;stroke-width:1.29999995;stroke-linecap:butt;stroke-linejoin:round;stroke-miterlimit:10;stroke-opacity:1;stroke-dasharray:none" /><path
         d="m 563.93406,495.7775 0,0"
         id="path3243"
         style="fill:#262626;fill-opacity:1;fill-rule:nonzero;stroke:#262626;stroke-width:1.29999995;stroke-linecap:butt;stroke-linejoin:round;stroke-miterlimit:10;stroke-opacity:1;stroke-dasharray:none" /><text
         transform="matrix(1,0,0,-1,557.28562,35.663125)"
         id="text3245"><tspan
           x="0 7.2280002"
           y="0"
           id="tspan3247"
           style="font-size:13px;font-variant:normal;font-weight:normal;writing-mode:lr-tb;fill:#262626;fill-opacity:1;fill-rule:nonzero;stroke:none;font-family:LiberationSans;-inkscape-font-specification:LiberationSans">20</tspan></text>
</g><g
       id="g3249"><g
         clip-path="url(#clipPath3253)"
         id="g3251"><path
           d="m 646.47297,54.185 0,441.5925"
           id="path3257"
           style="fill:none;stroke:#ffffff;stroke-width:1.29999995;stroke-linecap:round;stroke-linejoin:round;stroke-miterlimit:10;stroke-opacity:1;stroke-dasharray:none" /></g></g><g
       id="g3259"><path
         d="m 646.47297,54.185 0,0"
         id="path3261"
         style="fill:#262626;fill-opacity:1;fill-rule:nonzero;stroke:#262626;stroke-width:1.29999995;stroke-linecap:butt;stroke-linejoin:round;stroke-miterlimit:10;stroke-opacity:1;stroke-dasharray:none" /><path
         d="m 646.47297,495.7775 0,0"
         id="path3263"
         style="fill:#262626;fill-opacity:1;fill-rule:nonzero;stroke:#262626;stroke-width:1.29999995;stroke-linecap:butt;stroke-linejoin:round;stroke-miterlimit:10;stroke-opacity:1;stroke-dasharray:none" /><text
         transform="matrix(1,0,0,-1,639.74641,35.663125)"
         id="text3265"><tspan
           x="0 7.2280002"
           y="0"
           id="tspan3267"
           style="font-size:13px;font-variant:normal;font-weight:normal;writing-mode:lr-tb;fill:#262626;fill-opacity:1;fill-rule:nonzero;stroke:none;font-family:LiberationSans;-inkscape-font-specification:LiberationSans">30</tspan></text>
</g><g
       id="g3269"><g
         clip-path="url(#clipPath3273)"
         id="g3271"><path
           d="m 729.01188,54.185 0,441.5925"
           id="path3277"
           style="fill:none;stroke:#ffffff;stroke-width:1.29999995;stroke-linecap:round;stroke-linejoin:round;stroke-miterlimit:10;stroke-opacity:1;stroke-dasharray:none" /></g></g><g
       id="g3279"><path
         d="m 729.01188,54.185 0,0"
         id="path3281"
         style="fill:#262626;fill-opacity:1;fill-rule:nonzero;stroke:#262626;stroke-width:1.29999995;stroke-linecap:butt;stroke-linejoin:round;stroke-miterlimit:10;stroke-opacity:1;stroke-dasharray:none" /><path
         d="m 729.01188,495.7775 0,0"
         id="path3283"
         style="fill:#262626;fill-opacity:1;fill-rule:nonzero;stroke:#262626;stroke-width:1.29999995;stroke-linecap:butt;stroke-linejoin:round;stroke-miterlimit:10;stroke-opacity:1;stroke-dasharray:none" /><text
         transform="matrix(1,0,0,-1,722.18375,35.663125)"
         id="text3285"><tspan
           x="0 7.2280002"
           y="0"
           id="tspan3287"
           style="font-size:13px;font-variant:normal;font-weight:normal;writing-mode:lr-tb;fill:#262626;fill-opacity:1;fill-rule:nonzero;stroke:none;font-family:LiberationSans;-inkscape-font-specification:LiberationSans">40</tspan></text>
<g
         transform="translate(376.85625,16.96)"
         id="g3289"><text
           transform="matrix(1,0,0,-1,0,0.28125)"
           id="text3291"><tspan
             x="0"
             y="0"
             id="tspan3293"
             style="font-size:14.30000019px;font-variant:normal;font-weight:normal;writing-mode:lr-tb;fill:#262626;fill-opacity:1;fill-rule:nonzero;stroke:none;font-family:Cmr10;-inkscape-font-specification:Cmr10">∆</tspan></text>
<text
           transform="matrix(1,0,0,-1,11.909409,0.28125)"
           id="text3295"><tspan
             x="0"
             y="0"
             id="tspan3297"
             style="font-size:14.30000019px;font-variant:normal;font-weight:normal;writing-mode:lr-tb;fill:#262626;fill-opacity:1;fill-rule:nonzero;stroke:none;font-family:Cmmi10;-inkscape-font-specification:Cmmi10">t</tspan></text>
<text
           transform="matrix(1,0,0,-1,17.068283,0.28125)"
           id="text3299"><tspan
             x="0"
             y="0"
             id="tspan3301"
             style="font-size:14.30000019px;font-variant:normal;font-weight:normal;writing-mode:lr-tb;fill:#262626;fill-opacity:1;fill-rule:nonzero;stroke:none;font-family:Cmr10;-inkscape-font-specification:Cmr10">(</tspan></text>
<text
           transform="matrix(1,0,0,-1,22.618088,0.28125)"
           id="text3303"><tspan
             x="0 8.6074371"
             y="0"
             id="tspan3305"
             style="font-size:14.30000019px;font-variant:normal;font-weight:normal;writing-mode:lr-tb;fill:#262626;fill-opacity:1;fill-rule:nonzero;stroke:none;font-family:Cmmi10;-inkscape-font-specification:Cmmi10">µs</tspan></text>
<text
           transform="matrix(1,0,0,-1,37.913223,0.28125)"
           id="text3307"><tspan
             x="0"
             y="0"
             id="tspan3309"
             style="font-size:14.30000019px;font-variant:normal;font-weight:normal;writing-mode:lr-tb;fill:#262626;fill-opacity:1;fill-rule:nonzero;stroke:none;font-family:Cmr10;-inkscape-font-specification:Cmr10">)</tspan></text>
</g></g><g
       id="g3311"><g
         clip-path="url(#clipPath3315)"
         id="g3313"><path
           d="m 68.700625,54.185 660.311255,0"
           id="path3319"
           style="fill:none;stroke:#ffffff;stroke-width:1.29999995;stroke-linecap:round;stroke-linejoin:round;stroke-miterlimit:10;stroke-opacity:1;stroke-dasharray:none" /></g></g><g
       id="g3321"><path
         d="m 68.700625,54.185 0,0"
         id="path3323"
         style="fill:#262626;fill-opacity:1;fill-rule:nonzero;stroke:#262626;stroke-width:1.29999995;stroke-linecap:butt;stroke-linejoin:round;stroke-miterlimit:10;stroke-opacity:1;stroke-dasharray:none" /><path
         d="m 729.01188,54.185 0,0"
         id="path3325"
         style="fill:#262626;fill-opacity:1;fill-rule:nonzero;stroke:#262626;stroke-width:1.29999995;stroke-linecap:butt;stroke-linejoin:round;stroke-miterlimit:10;stroke-opacity:1;stroke-dasharray:none" /><g
         transform="translate(34.96,50.825625)"
         id="g3327"><text
           transform="matrix(1,0,0,-1,7.5917969,0)"
           id="text3329"><tspan
             x="0 7.2280002 10.842"
             y="0"
             id="tspan3331"
             style="font-size:13px;font-variant:normal;font-weight:normal;writing-mode:lr-tb;fill:#262626;fill-opacity:1;fill-rule:nonzero;stroke:none;font-family:LiberationSans;-inkscape-font-specification:LiberationSans">0.4</tspan></text>
<g
           transform="scale(0.013,0.013)"
           id="g3333"><g
             id="g3335"><g
               clip-path="url(#clipPath3339)"
               id="g3337"><path
                 d="m 49,297 0,71 486,0 0,-71 -486,0"
                 id="path3343"
                 style="fill:#262626;fill-opacity:1;fill-rule:nonzero;stroke:none" /></g></g></g></g></g><g
       id="g3345"><g
         clip-path="url(#clipPath3349)"
         id="g3347"><path
           d="m 68.700625,109.38406 660.311255,0"
           id="path3353"
           style="fill:none;stroke:#ffffff;stroke-width:1.29999995;stroke-linecap:round;stroke-linejoin:round;stroke-miterlimit:10;stroke-opacity:1;stroke-dasharray:none" /></g></g><g
       id="g3355"><path
         d="m 68.700625,109.38406 0,0"
         id="path3357"
         style="fill:#262626;fill-opacity:1;fill-rule:nonzero;stroke:#262626;stroke-width:1.29999995;stroke-linecap:butt;stroke-linejoin:round;stroke-miterlimit:10;stroke-opacity:1;stroke-dasharray:none" /><path
         d="m 729.01188,109.38406 0,0"
         id="path3359"
         style="fill:#262626;fill-opacity:1;fill-rule:nonzero;stroke:#262626;stroke-width:1.29999995;stroke-linecap:butt;stroke-linejoin:round;stroke-miterlimit:10;stroke-opacity:1;stroke-dasharray:none" /><g
         transform="translate(35.225625,106.02469)"
         id="g3361"><text
           transform="matrix(1,0,0,-1,7.5917969,0)"
           id="text3363"><tspan
             x="0 7.2280002 10.842"
             y="0"
             id="tspan3365"
             style="font-size:13px;font-variant:normal;font-weight:normal;writing-mode:lr-tb;fill:#262626;fill-opacity:1;fill-rule:nonzero;stroke:none;font-family:LiberationSans;-inkscape-font-specification:LiberationSans">0.2</tspan></text>
<g
           transform="scale(0.013,0.013)"
           id="g3367"><g
             id="g3369"><g
               clip-path="url(#clipPath3373)"
               id="g3371"><path
                 d="m 49,297 0,71 486,0 0,-71 -486,0"
                 id="path3377"
                 style="fill:#262626;fill-opacity:1;fill-rule:nonzero;stroke:none" /></g></g></g></g></g><g
       id="g3379"><g
         clip-path="url(#clipPath3383)"
         id="g3381"><path
           d="m 68.700625,164.58312 660.311255,0"
           id="path3387"
           style="fill:none;stroke:#ffffff;stroke-width:1.29999995;stroke-linecap:round;stroke-linejoin:round;stroke-miterlimit:10;stroke-opacity:1;stroke-dasharray:none" /></g></g><g
       id="g3389"><path
         d="m 68.700625,164.58312 0,0"
         id="path3391"
         style="fill:#262626;fill-opacity:1;fill-rule:nonzero;stroke:#262626;stroke-width:1.29999995;stroke-linecap:butt;stroke-linejoin:round;stroke-miterlimit:10;stroke-opacity:1;stroke-dasharray:none" /><path
         d="m 729.01188,164.58312 0,0"
         id="path3393"
         style="fill:#262626;fill-opacity:1;fill-rule:nonzero;stroke:#262626;stroke-width:1.29999995;stroke-linecap:butt;stroke-linejoin:round;stroke-miterlimit:10;stroke-opacity:1;stroke-dasharray:none" /><text
         transform="matrix(1,0,0,-1,42.55375,161.22375)"
         id="text3395"><tspan
           x="0 7.2280002 10.842"
           y="0"
           id="tspan3397"
           style="font-size:13px;font-variant:normal;font-weight:normal;writing-mode:lr-tb;fill:#262626;fill-opacity:1;fill-rule:nonzero;stroke:none;font-family:LiberationSans;-inkscape-font-specification:LiberationSans">0.0</tspan></text>
</g><g
       id="g3399"><g
         clip-path="url(#clipPath3403)"
         id="g3401"><path
           d="m 68.700625,219.78219 660.311255,0"
           id="path3407"
           style="fill:none;stroke:#ffffff;stroke-width:1.29999995;stroke-linecap:round;stroke-linejoin:round;stroke-miterlimit:10;stroke-opacity:1;stroke-dasharray:none" /></g></g><g
       id="g3409"><path
         d="m 68.700625,219.78219 0,0"
         id="path3411"
         style="fill:#262626;fill-opacity:1;fill-rule:nonzero;stroke:#262626;stroke-width:1.29999995;stroke-linecap:butt;stroke-linejoin:round;stroke-miterlimit:10;stroke-opacity:1;stroke-dasharray:none" /><path
         d="m 729.01188,219.78219 0,0"
         id="path3413"
         style="fill:#262626;fill-opacity:1;fill-rule:nonzero;stroke:#262626;stroke-width:1.29999995;stroke-linecap:butt;stroke-linejoin:round;stroke-miterlimit:10;stroke-opacity:1;stroke-dasharray:none" /><text
         transform="matrix(1,0,0,-1,42.694375,216.42281)"
         id="text3415"><tspan
           x="0 7.2280002 10.842"
           y="0"
           id="tspan3417"
           style="font-size:13px;font-variant:normal;font-weight:normal;writing-mode:lr-tb;fill:#262626;fill-opacity:1;fill-rule:nonzero;stroke:none;font-family:LiberationSans;-inkscape-font-specification:LiberationSans">0.2</tspan></text>
</g><g
       id="g3419"><g
         clip-path="url(#clipPath3423)"
         id="g3421"><path
           d="m 68.700625,274.98125 660.311255,0"
           id="path3427"
           style="fill:none;stroke:#ffffff;stroke-width:1.29999995;stroke-linecap:round;stroke-linejoin:round;stroke-miterlimit:10;stroke-opacity:1;stroke-dasharray:none" /></g></g><g
       id="g3429"><path
         d="m 68.700625,274.98125 0,0"
         id="path3431"
         style="fill:#262626;fill-opacity:1;fill-rule:nonzero;stroke:#262626;stroke-width:1.29999995;stroke-linecap:butt;stroke-linejoin:round;stroke-miterlimit:10;stroke-opacity:1;stroke-dasharray:none" /><path
         d="m 729.01188,274.98125 0,0"
         id="path3433"
         style="fill:#262626;fill-opacity:1;fill-rule:nonzero;stroke:#262626;stroke-width:1.29999995;stroke-linecap:butt;stroke-linejoin:round;stroke-miterlimit:10;stroke-opacity:1;stroke-dasharray:none" /><text
         transform="matrix(1,0,0,-1,42.42875,271.62187)"
         id="text3435"><tspan
           x="0 7.2280002 10.842"
           y="0"
           id="tspan3437"
           style="font-size:13px;font-variant:normal;font-weight:normal;writing-mode:lr-tb;fill:#262626;fill-opacity:1;fill-rule:nonzero;stroke:none;font-family:LiberationSans;-inkscape-font-specification:LiberationSans">0.4</tspan></text>
</g><g
       id="g3439"><g
         clip-path="url(#clipPath3443)"
         id="g3441"><path
           d="m 68.700625,330.18031 660.311255,0"
           id="path3447"
           style="fill:none;stroke:#ffffff;stroke-width:1.29999995;stroke-linecap:round;stroke-linejoin:round;stroke-miterlimit:10;stroke-opacity:1;stroke-dasharray:none" /></g></g><g
       id="g3449"><path
         d="m 68.700625,330.18031 0,0"
         id="path3451"
         style="fill:#262626;fill-opacity:1;fill-rule:nonzero;stroke:#262626;stroke-width:1.29999995;stroke-linecap:butt;stroke-linejoin:round;stroke-miterlimit:10;stroke-opacity:1;stroke-dasharray:none" /><path
         d="m 729.01188,330.18031 0,0"
         id="path3453"
         style="fill:#262626;fill-opacity:1;fill-rule:nonzero;stroke:#262626;stroke-width:1.29999995;stroke-linecap:butt;stroke-linejoin:round;stroke-miterlimit:10;stroke-opacity:1;stroke-dasharray:none" /><text
         transform="matrix(1,0,0,-1,42.61625,326.82094)"
         id="text3455"><tspan
           x="0 7.2280002 10.842"
           y="0"
           id="tspan3457"
           style="font-size:13px;font-variant:normal;font-weight:normal;writing-mode:lr-tb;fill:#262626;fill-opacity:1;fill-rule:nonzero;stroke:none;font-family:LiberationSans;-inkscape-font-specification:LiberationSans">0.6</tspan></text>
</g><g
       id="g3459"><g
         clip-path="url(#clipPath3463)"
         id="g3461"><path
           d="m 68.700625,385.37937 660.311255,0"
           id="path3467"
           style="fill:none;stroke:#ffffff;stroke-width:1.29999995;stroke-linecap:round;stroke-linejoin:round;stroke-miterlimit:10;stroke-opacity:1;stroke-dasharray:none" /></g></g><g
       id="g3469"><path
         d="m 68.700625,385.37937 0,0"
         id="path3471"
         style="fill:#262626;fill-opacity:1;fill-rule:nonzero;stroke:#262626;stroke-width:1.29999995;stroke-linecap:butt;stroke-linejoin:round;stroke-miterlimit:10;stroke-opacity:1;stroke-dasharray:none" /><path
         d="m 729.01188,385.37937 0,0"
         id="path3473"
         style="fill:#262626;fill-opacity:1;fill-rule:nonzero;stroke:#262626;stroke-width:1.29999995;stroke-linecap:butt;stroke-linejoin:round;stroke-miterlimit:10;stroke-opacity:1;stroke-dasharray:none" /><text
         transform="matrix(1,0,0,-1,42.600625,382.02)"
         id="text3475"><tspan
           x="0 7.2280002 10.842"
           y="0"
           id="tspan3477"
           style="font-size:13px;font-variant:normal;font-weight:normal;writing-mode:lr-tb;fill:#262626;fill-opacity:1;fill-rule:nonzero;stroke:none;font-family:LiberationSans;-inkscape-font-specification:LiberationSans">0.8</tspan></text>
</g><g
       id="g3479"><g
         clip-path="url(#clipPath3483)"
         id="g3481"><path
           d="m 68.700625,440.57844 660.311255,0"
           id="path3487"
           style="fill:none;stroke:#ffffff;stroke-width:1.29999995;stroke-linecap:round;stroke-linejoin:round;stroke-miterlimit:10;stroke-opacity:1;stroke-dasharray:none" /></g></g><g
       id="g3489"><path
         d="m 68.700625,440.57844 0,0"
         id="path3491"
         style="fill:#262626;fill-opacity:1;fill-rule:nonzero;stroke:#262626;stroke-width:1.29999995;stroke-linecap:butt;stroke-linejoin:round;stroke-miterlimit:10;stroke-opacity:1;stroke-dasharray:none" /><path
         d="m 729.01188,440.57844 0,0"
         id="path3493"
         style="fill:#262626;fill-opacity:1;fill-rule:nonzero;stroke:#262626;stroke-width:1.29999995;stroke-linecap:butt;stroke-linejoin:round;stroke-miterlimit:10;stroke-opacity:1;stroke-dasharray:none" /><text
         transform="matrix(1,0,0,-1,43.0225,437.21906)"
         id="text3495"><tspan
           x="0 7.2280002 10.842"
           y="0"
           id="tspan3497"
           style="font-size:13px;font-variant:normal;font-weight:normal;writing-mode:lr-tb;fill:#262626;fill-opacity:1;fill-rule:nonzero;stroke:none;font-family:LiberationSans;-inkscape-font-specification:LiberationSans">1.0</tspan></text>
</g><g
       id="g3499"><g
         clip-path="url(#clipPath3503)"
         id="g3501"><path
           d="m 68.700625,495.7775 660.311255,0"
           id="path3507"
           style="fill:none;stroke:#ffffff;stroke-width:1.29999995;stroke-linecap:round;stroke-linejoin:round;stroke-miterlimit:10;stroke-opacity:1;stroke-dasharray:none" /></g></g><g
       id="g3509"><path
         d="m 68.700625,495.7775 0,0"
         id="path3511"
         style="fill:#262626;fill-opacity:1;fill-rule:nonzero;stroke:#262626;stroke-width:1.29999995;stroke-linecap:butt;stroke-linejoin:round;stroke-miterlimit:10;stroke-opacity:1;stroke-dasharray:none" /><path
         d="m 729.01188,495.7775 0,0"
         id="path3513"
         style="fill:#262626;fill-opacity:1;fill-rule:nonzero;stroke:#262626;stroke-width:1.29999995;stroke-linecap:butt;stroke-linejoin:round;stroke-miterlimit:10;stroke-opacity:1;stroke-dasharray:none" /><text
         transform="matrix(1,0,0,-1,43.163125,492.41812)"
         id="text3515"><tspan
           x="0 7.2280002 10.842"
           y="0"
           id="tspan3517"
           style="font-size:13px;font-variant:normal;font-weight:normal;writing-mode:lr-tb;fill:#262626;fill-opacity:1;fill-rule:nonzero;stroke:none;font-family:LiberationSans;-inkscape-font-specification:LiberationSans">1.2</tspan></text>
<g
         transform="matrix(0,1,-1,0,23.96,248.98125)"
         id="g3519"><text
           transform="matrix(1,0,0,-1,0,0.28125)"
           id="text3521"><tspan
             x="0"
             y="0"
             id="tspan3523"
             style="font-size:14.30000019px;font-variant:normal;font-weight:normal;writing-mode:lr-tb;fill:#262626;fill-opacity:1;fill-rule:nonzero;stroke:none;font-family:Cmmi10;-inkscape-font-specification:Cmmi10">C</tspan></text>
<text
           transform="matrix(1,0,0,-1,10.20607,-3.3665906)"
           id="text3525"><tspan
             x="0"
             y="0"
             id="tspan3527"
             style="font-size:10.01000023px;font-variant:normal;font-weight:normal;writing-mode:lr-tb;fill:#262626;fill-opacity:1;fill-rule:nonzero;stroke:none;font-family:Cmr10;-inkscape-font-specification:Cmr10">∆</tspan></text>
<text
           transform="matrix(1,0,0,-1,18.542656,-3.3665906)"
           id="text3529"><tspan
             x="0"
             y="0"
             id="tspan3531"
             style="font-size:10.01000023px;font-variant:normal;font-weight:normal;writing-mode:lr-tb;fill:#262626;fill-opacity:1;fill-rule:nonzero;stroke:none;font-family:Cmmi10;-inkscape-font-specification:Cmmi10">y</tspan></text>
<text
           transform="matrix(1,0,0,-1,23.44883,0.28125)"
           id="text3533"><tspan
             x="0 5.5498047"
             y="0"
             id="tspan3535"
             style="font-size:14.30000019px;font-variant:normal;font-weight:normal;writing-mode:lr-tb;fill:#262626;fill-opacity:1;fill-rule:nonzero;stroke:none;font-family:Cmr10;-inkscape-font-specification:Cmr10">(∆</tspan></text>
<text
           transform="matrix(1,0,0,-1,40.908043,0.28125)"
           id="text3537"><tspan
             x="0"
             y="0"
             id="tspan3539"
             style="font-size:14.30000019px;font-variant:normal;font-weight:normal;writing-mode:lr-tb;fill:#262626;fill-opacity:1;fill-rule:nonzero;stroke:none;font-family:Cmmi10;-inkscape-font-specification:Cmmi10">t</tspan></text>
<text
           transform="matrix(1,0,0,-1,46.066917,0.28125)"
           id="text3541"><tspan
             x="0"
             y="0"
             id="tspan3543"
             style="font-size:14.30000019px;font-variant:normal;font-weight:normal;writing-mode:lr-tb;fill:#262626;fill-opacity:1;fill-rule:nonzero;stroke:none;font-family:Cmr10;-inkscape-font-specification:Cmr10">)</tspan></text>
</g></g><g
       id="g3545"><g
         clip-path="url(#clipPath3549)"
         id="g3547"><path
           d="m 113.13693,164.46906 9.55583,-1.0307 8.60025,-0.67892 6.68908,-0.32791 3.82233,-0.0113 3.82233,0.2211 2.86675,0.37506 2.86675,0.59708 2.86675,0.85285 2.86675,1.13265 2.86675,1.42211 2.86675,1.70331 2.86674,1.9573 3.82234,2.92413 12.42258,9.98229 2.86674,1.88512 2.86675,1.54443 1.91117,0.80756 1.91117,0.61438 1.91116,0.4145 1.91117,0.21456 1.91116,0.0214 1.91117,-0.15895 2.86675,-0.53528 2.86675,-0.8208 3.82233,-1.38734 16.24491,-6.33613 8.60025,-3.2216 3.82233,-1.64084 3.82233,-1.87021 3.82233,-2.16836 2.86675,-1.86911 2.86675,-2.12349 2.86675,-2.43154 2.86675,-2.80473 2.86675,-3.25115 1.91117,-2.45165 1.91116,-2.70167 1.91117,-2.96645 2.86675,-4.96376 2.86675,-5.5757 2.86675,-6.14077 3.82233,-8.89812 12.42258,-29.882774 2.86675,-5.836489 1.91116,-3.425188 1.91117,-2.989368 1.91116,-2.510266 1.91117,-1.999968 1.91117,-1.471546 0.95558,-0.535474 0.95558,-0.402277 0.95558,-0.270276 0.95559,-0.140109 0.95558,-0.01235 0.95558,0.112497 0.95559,0.233942 1.91116,0.817346 1.91117,1.255856 1.91116,1.659625 1.91117,2.028674 1.91117,2.365264 1.91116,2.672736 1.91117,2.955783 2.86675,4.925084 2.86675,5.480793 2.86675,6.019485 2.86675,6.55426 2.86674,7.08699 2.86675,7.61431 2.86675,8.13939 2.86675,8.68328 2.86675,9.2849 2.86675,9.99096 2.86675,10.84116 2.86675,11.85781 2.86675,13.04259 2.86675,14.37841 2.86674,15.83406 2.86675,17.36205 2.86675,18.89496 2.86675,20.33846 3.82233,28.97099 9.55583,73.9986 1.91117,13.06272 1.91117,11.72218 1.91116,10.03552 0.95558,4.283 0.95559,3.74423 0.95558,3.17365 0.95558,2.5754 0.95559,1.95792 0.95558,1.32727 0.95558,-1.32727 0.95559,-1.95792 0.95558,-2.5754 0.95558,-3.17365 0.95559,-3.74423 1.91116,-9.06939 1.91117,-10.9206 1.91116,-12.43659 2.86675,-20.73001 3.82233,-29.77324 5.7335,-44.88182 3.82233,-27.97305 2.86675,-19.39152 2.86675,-17.87658 2.86675,-16.33815 2.86675,-14.85237 2.86675,-13.47225 2.86675,-12.23466 2.86675,-11.16095 2.86675,-10.25691 2.86675,-9.50633 2.86674,-8.87518 2.86675,-8.31692 2.86675,-7.78903 2.86675,-7.26342 2.86675,-6.73226 2.86675,-6.19785 2.86675,-5.661377 2.86675,-5.11351 2.86675,-4.533778 1.91116,-2.672736 1.91117,-2.365264 1.91117,-2.028674 1.91116,-1.659625 1.91117,-1.255856 1.91116,-0.817346 0.95559,-0.233942 0.95558,-0.112497 0.95558,0.01235 0.95559,0.140109 0.95558,0.270276 0.95558,0.402277 0.95558,0.535474 1.91117,1.471546 1.91117,1.999968 1.91116,2.510266 1.91117,2.989368 1.91116,3.425188 1.91117,3.80786 2.86675,6.294464 3.82233,9.127629 8.60025,21.02412 2.86675,6.46819 2.86675,5.96052 2.86675,5.37464 2.86675,4.75723 2.86674,4.15108 2.86675,3.58958 2.86675,3.09404 2.86675,2.67245 2.86675,2.32216 2.86675,2.03334 2.86675,1.79417 3.82233,2.08704 3.82233,1.80654 4.77792,1.96753 7.64466,2.81156 7.64467,2.89456 11.46699,4.48318 2.86675,0.8208 2.86675,0.53528 1.91117,0.15895 1.91116,-0.0214 1.91117,-0.21456 1.91116,-0.4145 1.91117,-0.61438 1.91117,-0.80756 1.91116,-0.98812 2.86675,-1.78 2.86675,-2.0675 3.82233,-3.04914 8.60025,-7.02687 3.82233,-2.75556 2.86675,-1.7919 2.86675,-1.51772 2.86675,-1.22887 2.86675,-0.94409 2.86675,-0.67892 2.86675,-0.445 2.86674,-0.24808 3.82234,-0.0933 4.77791,0.13657 7.64467,0.4939 8.60024,0.78513 5.7335,0.65087 0,0"
           id="path3553"
           style="fill:none;stroke:#4c72b0;stroke-width:2.2750001;stroke-linecap:round;stroke-linejoin:round;stroke-miterlimit:10;stroke-opacity:1;stroke-dasharray:none" /></g></g><g
       id="g3555"><g
         clip-path="url(#clipPath3559)"
         id="g3557"><path
           d="m 113.13693,164.4724 15.28933,-1.67429 10.51141,-0.83642 6.68908,-0.3617 4.77792,-0.071 3.82233,0.15747 2.86675,0.31162 2.86675,0.53323 2.86675,0.80109 2.86674,1.10494 2.86675,1.42926 2.86675,1.75498 2.86675,2.06101 2.86675,2.32639 3.82233,3.41085 10.51142,9.70285 2.86674,2.28821 2.86675,1.95452 1.91117,1.07845 1.91117,0.87793 1.91116,0.66642 1.91117,0.4505 1.91116,0.23731 1.91117,0.0339 1.91117,-0.1537 1.91116,-0.32037 2.86675,-0.73911 2.86675,-0.97135 4.77792,-1.92028 8.60024,-3.78933 7.64467,-3.54646 5.73349,-2.89792 3.82234,-2.13678 3.82233,-2.37358 3.82233,-2.68236 2.86675,-2.26766 2.86675,-2.54148 2.86675,-2.87868 2.86675,-3.29058 2.86675,-3.78277 1.91116,-2.83265 1.91117,-3.10265 2.86675,-5.18388 2.86675,-5.82187 2.86675,-6.4177 2.86674,-6.9211 4.77792,-12.25711 5.7335,-14.78439 2.86675,-6.893391 2.86675,-6.246817 1.91116,-3.697671 1.91117,-3.259447 1.91116,-2.777666 1.91117,-2.264799 1.91117,-1.734565 1.91116,-1.200991 0.95558,-0.402977 0.95559,-0.274076 0.95558,-0.148069 0.95558,-0.02551 0.95559,0.09317 1.91116,0.525045 1.91117,0.945785 1.91116,1.329148 1.91117,1.676558 1.91117,1.991889 1.91116,2.281509 1.91117,2.552338 2.86675,4.314097 2.86675,4.893021 2.86675,5.48895 2.86675,6.106059 2.86674,6.73043 2.86675,7.34331 2.86675,7.94003 2.86675,8.54032 2.86675,9.18802 2.86675,9.93388 2.86675,10.82008 2.86675,11.86501 2.86675,13.0666 2.86675,14.40599 2.86674,15.85539 2.86675,17.37442 2.86675,18.90691 2.86675,20.37871 3.82233,29.1738 5.7335,46.34689 3.82233,30.42316 1.91117,14.23644 1.91117,9.64933 1.91116,7.91687 0.95559,3.2213 0.95558,2.69022 0.95558,2.13614 0.95558,1.56546 0.95559,0.97823 0.95558,0.38267 0.95558,-0.21547 0.95559,-0.81041 0.95558,-1.39669 0.95558,-1.96891 0.95559,-2.52207 0.95558,-3.05161 0.95558,-3.55357 1.91117,-8.48636 1.91116,-10.09255 1.91117,-11.40101 2.86675,-18.89439 3.82233,-27.05804 5.7335,-40.80916 3.82233,-25.45882 2.86675,-17.65441 2.86675,-16.28615 2.86675,-14.90703 2.86675,-13.58763 2.86675,-12.37709 2.86674,-11.31054 2.86675,-10.40642 2.86675,-9.66375 3.82233,-11.95836 3.82234,-11.08269 3.82233,-10.29401 3.82233,-9.51936 2.86675,-6.61803 2.86675,-6.14559 2.86675,-5.63228 2.86675,-5.05797 1.91116,-3.013624 1.91117,-2.695107 1.91117,-2.346878 1.91116,-1.968011 1.91117,-1.558835 1.91116,-1.120524 1.91117,-0.655338 0.95558,-0.145867 0.95559,-0.02144 0.95558,0.104938 0.95558,0.232801 0.95558,0.361609 0.95559,0.490775 1.91116,1.367212 1.91117,1.871253 1.91117,2.353237 1.91116,2.802122 1.91117,3.207527 1.91116,3.56099 2.86675,5.87564 3.82233,8.49662 8.60025,19.41757 2.86675,5.90445 2.86675,5.39768 2.86675,4.82307 2.86675,4.22705 1.91116,2.4952 2.86675,3.29335 2.86675,2.81352 2.86675,2.40957 2.86675,2.08088 2.86675,1.81792 3.82233,2.102 3.82233,1.80886 3.82234,1.57469 4.77791,1.73506 10.51141,3.69297 4.77792,1.93814 12.42258,5.23033 2.86675,0.84914 2.86675,0.54343 1.91116,0.15876 1.91117,-0.0209 1.91116,-0.20871 1.91117,-0.39861 1.91117,-0.58435 1.91116,-0.76013 2.86675,-1.43641 2.86675,-1.73135 3.82233,-2.62919 10.51142,-7.56176 2.86674,-1.78952 2.86675,-1.56596 2.86675,-1.31503 2.86675,-1.05596 2.86675,-0.80607 2.86675,-0.57871 2.86675,-0.38349 3.82233,-0.26943 4.77792,-0.0524 5.73349,0.22066 6.68909,0.50812 1.91116,0.17895 0,0"
           id="path3563"
           style="fill:none;stroke:#55a868;stroke-width:2.2750001;stroke-linecap:round;stroke-linejoin:round;stroke-miterlimit:10;stroke-opacity:1;stroke-dasharray:none" /></g></g><g
       id="g3565"><g
         clip-path="url(#clipPath3569)"
         id="g3567"><path
           d="m 113.13693,164.46039 16.24491,-1.95448 19.11166,-2.05402 5.7335,-0.36252 4.77791,-0.0854 3.82234,0.17717 2.86674,0.34373 2.86675,0.57666 2.86675,0.85335 2.86675,1.16478 2.86675,1.49652 2.86675,1.83034 2.86675,2.14656 2.86675,2.42728 3.82233,3.58365 5.7335,5.79716 5.7335,5.71571 2.86675,2.58981 2.86674,2.28121 1.91117,1.30685 1.91117,1.11176 1.91116,0.90256 1.91117,0.68626 1.91116,0.47001 1.91117,0.26117 1.91117,0.0663 1.91116,-0.10953 2.86675,-0.44509 2.86675,-0.71342 3.82233,-1.25336 3.82233,-1.49953 4.77792,-2.13865 4.77791,-2.39804 4.77792,-2.64831 4.77791,-2.91356 3.82234,-2.55568 3.82233,-2.80388 3.82233,-3.11446 2.86675,-2.58926 2.86675,-2.85883 2.86675,-3.18989 2.86675,-3.59616 2.86675,-4.08551 2.86675,-4.6545 2.86674,-5.28315 2.86675,-5.93405 2.86675,-6.5574 2.86675,-7.09865 3.82233,-10.07359 8.60025,-23.000631 2.86675,-6.970508 1.91117,-4.25235 1.91116,-3.864322 1.91117,-3.423643 1.91116,-2.941783 1.91117,-2.43231 1.91117,-1.90957 1.91116,-1.387662 1.91117,-0.879707 0.95558,-0.256881 0.95558,-0.139989 1.91117,0.0531 1.91117,0.46527 1.91116,0.837474 1.91117,1.171589 1.91116,1.472118 1.91117,1.745686 1.91117,2.001704 1.91116,2.250213 1.91117,2.500537 1.91116,2.760449 1.91117,3.034249 1.91117,3.322544 2.86675,5.548984 2.86674,6.242033 2.86675,6.932316 2.86675,7.61595 2.86675,8.31355 2.86675,9.05958 2.86675,9.89055 2.86675,10.83072 2.86675,11.89278 2.86675,13.07229 2.86675,14.35168 2.86674,15.702 2.86675,17.09199 2.86675,18.48773 2.86675,19.84436 3.82233,28.38923 2.86675,21.44062 4.77792,31.86177 2.86675,17.45772 1.91116,10.43503 1.91117,9.16125 1.91117,7.63464 0.95558,3.17435 0.95558,2.71388 0.95558,2.23405 0.95559,1.73866 0.95558,1.2319 0.95558,0.71814 0.95559,0.20181 0.95558,-0.31271 0.95558,-0.82101 0.95559,-1.31942 0.95558,-1.80423 0.95558,-2.27208 0.95558,-2.71993 0.95559,-3.14506 1.91116,-7.46299 1.91117,-8.84017 1.91117,-9.9773 2.86674,-16.5539 3.82234,-23.77614 6.68908,-41.81118 3.82233,-22.15159 2.86675,-15.35389 2.86675,-14.19394 2.86675,-13.05022 2.86675,-11.98342 2.86674,-11.03716 2.86675,-10.2343 3.82234,-12.63839 3.82233,-11.72935 3.82233,-10.98916 3.82233,-10.32881 3.82233,-9.68214 3.82234,-8.98701 2.86675,-6.21517 2.86674,-5.68217 2.86675,-5.05714 1.91117,-2.975046 1.91117,-2.623705 1.91116,-2.24413 1.91117,-1.837854 1.91116,-1.407049 1.91117,-0.954433 0.95558,-0.301547 0.95559,-0.181789 0.95558,-0.06045 0.95558,0.06206 0.95558,0.185311 0.95559,0.308819 0.95558,0.432097 1.91117,1.230315 1.91116,1.706251 1.91117,2.158801 1.91116,2.578723 1.91117,2.957263 1.91117,3.286623 2.86675,5.42576 3.82233,7.83991 7.64466,15.9141 2.86675,5.49546 2.86675,5.03529 2.86675,4.50615 2.86675,3.95259 2.86675,3.41411 2.86675,2.92145 2.86675,2.49326 2.86674,2.13567 2.86675,1.84403 2.86675,1.60766 3.82233,1.8492 3.82234,1.58348 4.77791,1.70847 16.24491,5.46879 5.7335,2.3636 6.68908,2.77521 2.86675,1.00858 2.86675,0.79359 2.86675,0.51294 1.91117,0.16059 1.91116,0.004 1.91117,-0.15866 1.91116,-0.3216 1.91117,-0.48105 2.86675,-1.0023 2.86675,-1.30055 2.86675,-1.53961 4.77791,-2.89702 6.68908,-4.1257 3.82233,-2.08703 2.86675,-1.35268 2.86675,-1.15032 2.86675,-0.94811 2.86675,-0.75468 2.86675,-0.57209 3.82233,-0.49646 3.82233,-0.22273 3.82234,8e-4 4.77791,0.22119 0,0"
           id="path3573"
           style="fill:none;stroke:#c44e52;stroke-width:2.2750001;stroke-linecap:round;stroke-linejoin:round;stroke-miterlimit:10;stroke-opacity:1;stroke-dasharray:none" /></g></g><g
       id="g3575"><g
         clip-path="url(#clipPath3579)"
         id="g3577"><path
           d="m 113.13693,164.41271 6.68908,-1.05504 7.64466,-0.99959 18.15608,-2.1883 14.33375,-2.15002 3.82233,-0.3161 3.82233,-0.0654 2.86675,0.16683 2.86675,0.39229 2.86675,0.65102 2.86675,0.93796 2.86675,1.24462 2.86674,1.56041 2.86675,1.87264 2.86675,2.16839 2.86675,2.43564 3.82233,3.59544 4.77792,4.88874 9.55583,9.94002 2.86675,2.66659 2.86675,2.36203 2.86675,1.983 1.91116,1.08588 1.91117,0.88831 1.91116,0.69122 1.91117,0.5009 1.91117,0.32285 1.91116,0.16081 2.86675,-0.024 2.86675,-0.29171 2.86675,-0.51466 2.86675,-0.71051 2.86675,-0.89535 2.86675,-1.07955 2.86675,-1.26554 3.82233,-1.97512 3.82233,-2.29217 3.82233,-2.59599 3.82233,-2.89982 3.82234,-3.22325 3.82233,-3.58321 2.86675,-2.95513 2.86675,-3.21958 2.86675,-3.53085 2.86674,-3.90578 2.86675,-4.35902 2.86675,-4.89315 2.86675,-5.49262 2.86675,-6.12259 2.86675,-6.73416 2.86675,-7.275 3.82233,-10.3272 9.55583,-26.250873 2.86675,-7.092271 1.91117,-4.317778 1.91116,-3.921557 1.91117,-3.477974 1.91116,-2.998931 1.91117,-2.498036 1.91117,-1.989699 1.91116,-1.487923 1.91117,-1.00491 1.91116,-0.550846 1.91117,-0.133564 1.91117,0.242939 1.91116,0.577937 1.91117,0.873625 1.91116,1.136368 1.91117,1.375405 1.91117,1.601419 1.91116,1.826218 1.91117,2.060413 1.91116,2.311801 1.91117,2.58504 1.91117,2.880865 1.91116,3.196886 1.91117,3.529015 1.91116,3.872442 1.91117,4.22342 2.86675,7.005179 2.86675,7.8257 2.86675,8.67435 2.86675,9.56279 2.86675,10.49999 2.86674,11.48813 2.86675,12.53089 2.86675,13.63478 2.86675,14.80196 2.86675,16.0288 4.77792,28.68575 4.77791,29.41666 8.60025,53.26936 2.86675,16.25281 1.91116,9.88884 1.91117,8.88956 1.91117,7.69071 1.91116,6.31274 0.95558,2.59203 0.95559,2.19524 0.95558,1.7865 0.95558,1.3685 0.95559,0.94415 0.95558,0.51642 0.95558,0.0883 0.95559,-0.33712 0.95558,-0.7569 0.95558,-1.1684 0.95558,-1.56902 0.95559,-1.95624 0.95558,-2.32773 0.95558,-2.68128 1.91117,-6.34188 1.91117,-7.49794 1.91116,-8.45959 2.86675,-14.04701 3.82233,-20.22747 6.68908,-35.84585 3.82234,-19.2301 2.86674,-13.47482 2.86675,-12.59866 2.86675,-11.74194 2.86675,-10.95523 3.82233,-13.55297 3.82234,-12.56798 3.82233,-11.77983 3.82233,-11.1251 3.82233,-10.54758 3.82233,-9.99125 3.82234,-9.38117 2.86675,-6.55124 2.86674,-6.03657 2.86675,-5.41701 1.91117,-3.21483 1.91117,-2.86303 1.91116,-2.484273 1.91117,-2.081157 1.91116,-1.656362 1.91117,-1.212846 1.91117,-0.754299 0.95558,-0.201693 0.95558,-0.08348 0.95558,0.03521 0.95559,0.15393 0.95558,0.272222 1.91117,0.895086 1.91116,1.350828 1.91117,1.784996 1.91117,2.188958 1.91116,2.55513 1.91117,2.87653 2.86675,4.80529 3.82233,7.02934 8.60025,16.23338 2.86674,4.96375 2.86675,4.55065 2.86675,4.0801 2.86675,3.58878 2.86675,3.10768 2.86675,2.66063 2.86675,2.26345 2.86675,1.92471 2.86675,1.64588 2.86675,1.42277 3.82233,1.6304 3.82233,1.40273 4.77791,1.5304 16.24492,4.936 14.33374,4.94566 2.86675,0.69891 2.86675,0.48502 2.86675,0.23231 2.86675,-0.0487 2.86675,-0.34398 2.86675,-0.63648 2.86674,-0.90701 2.86675,-1.13682 3.82234,-1.77354 12.42258,-6.04054 3.82233,-1.51792 3.82233,-1.23905 2.86675,-0.71978 2.86675,-0.53081 2.86675,-0.34641 3.82233,-0.20545 0.95558,-0.0116 0,0"
           id="path3583"
           style="fill:none;stroke:#8172b2;stroke-width:2.2750001;stroke-linecap:round;stroke-linejoin:round;stroke-miterlimit:10;stroke-opacity:1;stroke-dasharray:none" /></g></g><g
       id="g3585"><g
         clip-path="url(#clipPath3589)"
         id="g3587"><path
           d="m 113.13693,164.32759 4.77791,-1.13798 5.7335,-1.10018 4.77792,-0.71995 4.77791,-0.5171 16.24491,-1.45387 4.77792,-0.86014 5.7335,-1.31445 6.68908,-1.5488 3.82233,-0.65166 2.86675,-0.27559 2.86675,-0.0379 2.86675,0.23828 2.86675,0.54029 2.86674,0.8572 2.86675,1.17903 2.86675,1.49712 2.86675,1.80288 2.86675,2.08818 2.86675,2.34592 3.82233,3.47147 3.82233,3.7837 5.7335,6.0421 7.64467,8.0485 3.82233,3.64438 2.86675,2.42534 2.86675,2.09901 2.86675,1.7411 2.86674,1.37782 2.86675,1.03424 2.86675,0.72721 2.86675,0.46233 2.86675,0.23216 2.86675,0.0202 2.86675,-0.19279 2.86675,-0.4218 2.86675,-0.67261 2.86675,-0.94323 2.86674,-1.22555 2.86675,-1.51251 2.86675,-1.79952 2.86675,-2.08662 2.86675,-2.37515 2.86675,-2.66603 2.86675,-2.95822 2.86675,-3.25048 2.86675,-3.54432 2.86675,-3.84764 2.86675,-4.17516 2.86674,-4.54571 2.86675,-4.9747 2.86675,-5.46629 2.86675,-6.00761 2.86675,-6.56872 2.86675,-7.10742 3.82233,-10.18611 5.7335,-16.15565 4.77791,-13.322261 2.86675,-7.483659 2.86675,-6.833338 1.91117,-4.097407 1.91117,-3.674848 1.91116,-3.217124 1.91117,-2.737423 1.91116,-2.249436 1.91117,-1.76633 1.91117,-1.300292 1.91116,-0.861808 1.91117,-0.458544 1.91116,-0.09599 1.91117,0.223263 1.91117,0.501117 1.91116,0.742649 1.91117,0.956193 1.91116,1.153759 1.91117,1.347984 1.91117,1.551019 1.91116,1.773779 1.91117,2.023504 1.91116,2.304005 1.91117,2.61607 1.91117,2.957388 1.91116,3.324256 1.91117,3.712008 1.91116,4.11559 1.91117,4.530492 1.91117,4.951625 2.86674,8.218249 2.86675,9.15259 2.86675,10.05899 2.86675,10.94266 2.86675,11.83088 2.86675,12.75999 3.82233,18.3638 3.82233,19.53989 4.77792,25.84129 7.64466,43.12542 4.77792,26.31274 2.86675,14.67234 2.86675,13.25652 1.91116,7.80524 1.91117,6.81522 1.91116,5.70001 0.95559,2.39785 0.95558,2.08123 0.95558,1.75531 0.95559,1.42195 0.95558,1.08295 0.95558,0.74015 0.95559,0.39556 0.95558,0.0512 0.95558,-0.29076 0.95558,-0.62822 0.95559,-0.95918 0.95558,-1.28177 0.95558,-1.59404 0.95559,-1.89419 1.91116,-4.63173 1.91117,-5.64661 1.91116,-6.5158 1.91117,-7.22887 2.86675,-11.83489 4.77791,-21.16231 6.68909,-29.72539 3.82233,-16.03412 3.82233,-15.06675 3.82233,-14.1062 3.82233,-13.25117 3.82234,-12.52248 4.77791,-14.77881 4.77792,-13.92454 4.77791,-13.1298 3.82233,-9.88869 3.82234,-9.20024 2.86674,-6.31894 2.86675,-5.70191 1.91117,-3.40585 1.91117,-3.05534 1.91116,-2.67851 1.91117,-2.27839 1.91116,-1.85831 1.91117,-1.42191 1.91117,-0.973208 1.91116,-0.51718 0.95559,-0.08685 0.95558,0.02732 1.91116,0.393721 1.91117,0.835497 1.91117,1.25849 1.91116,1.65583 1.91117,2.02044 1.91116,2.34615 1.91117,2.62809 2.86675,4.36534 3.82233,6.34452 8.60025,14.57024 2.86675,4.46067 2.86675,4.10233 2.86675,3.69198 2.86674,3.25802 2.86675,2.82656 2.86675,2.41996 2.86675,2.05577 2.86675,1.74498 2.86675,1.49103 3.82233,1.68311 3.82233,1.42402 4.77792,1.51845 5.7335,1.57105 12.42258,3.29967 13.37816,3.78347 3.82233,0.78499 2.86675,0.40412 2.86675,0.2105 2.86675,-0.008 2.86675,-0.2428 2.86675,-0.47801 2.86674,-0.69767 3.82234,-1.21599 4.77791,-1.83508 10.51142,-4.23414 3.82233,-1.25422 2.86675,-0.75402 2.86675,-0.57661 1.91116,-0.28421 0,0"
           id="path3593"
           style="fill:none;stroke:#ccb974;stroke-width:2.2750001;stroke-linecap:round;stroke-linejoin:round;stroke-miterlimit:10;stroke-opacity:1;stroke-dasharray:none" /></g></g><g
       id="g3595"><g
         clip-path="url(#clipPath3599)"
         id="g3597"><path
           d="m 113.13693,164.25209 5.7335,-1.87601 4.77791,-1.3314 3.82233,-0.85671 3.82234,-0.62851 3.82233,-0.38154 4.77791,-0.19716 11.467,-0.28644 3.82233,-0.3733 3.82233,-0.62839 3.82234,-0.89661 4.77791,-1.42627 8.60025,-2.68217 2.86675,-0.63645 2.86675,-0.37682 1.91116,-0.0776 1.91117,0.0756 1.91116,0.23669 1.91117,0.402 1.91117,0.56817 1.91116,0.73262 2.86675,1.39785 2.86675,1.73656 2.86675,2.04582 2.86675,2.31991 3.82233,3.45277 3.82233,3.77777 4.77792,5.03483 11.46699,12.264 3.82234,3.68538 2.86674,2.49774 2.86675,2.22747 2.86675,1.93875 2.86675,1.65349 2.86675,1.39101 2.86675,1.16364 3.82233,1.25683 3.82233,0.96076 2.86675,0.51925 2.86675,0.31624 2.86675,0.0727 2.86675,-0.2148 1.91117,-0.32351 1.91116,-0.48077 1.91117,-0.64769 1.91116,-0.82358 1.91117,-1.00736 1.91117,-1.19815 1.91116,-1.39518 1.91117,-1.59686 1.91116,-1.80169 2.86675,-3.08839 2.86675,-3.54351 2.86675,-3.97918 2.86675,-4.38668 2.86675,-4.7683 2.86675,-5.13571 2.86675,-5.50794 2.86675,-5.90209 2.86675,-6.32533 2.86674,-6.76978 3.82234,-9.70692 3.82233,-10.3778 13.37816,-37.206997 2.86675,-6.940305 1.91117,-4.197126 1.91116,-3.800613 1.91117,-3.370039 1.91116,-2.916692 1.91117,-2.452668 1.91117,-1.990025 1.91116,-1.540214 1.91117,-1.113927 1.91116,-0.720658 1.91117,-0.367494 1.91117,-0.05823 1.91116,0.206648 1.91117,0.431083 1.91116,0.623442 1.91117,0.794656 1.91117,0.957976 1.91116,1.127579 1.91117,1.315871 1.91116,1.533225 1.91117,1.786937 1.91117,2.080413 1.91116,2.414155 1.91117,2.785555 1.91116,3.189364 1.91117,3.618557 1.91117,4.064354 1.91116,4.517181 1.91117,4.96761 2.86675,8.272392 2.86675,9.19165 1.91116,6.74326 2.86675,10.91422 3.82233,15.53181 3.82234,16.55647 3.82233,17.54136 4.77791,23.16145 6.68908,33.86031 5.7335,28.77422 3.82233,17.96299 2.86675,12.29654 1.91117,7.45322 1.91117,6.74651 1.91116,5.95054 1.91117,5.0737 1.91116,4.12601 0.95559,1.6888 0.95558,1.43114 0.95558,1.16873 0.95559,0.90273 0.95558,0.63426 0.95558,0.36468 0.95558,0.0954 0.95559,-0.17208 0.95558,-0.43618 0.95558,-0.69539 0.95559,-0.94838 0.95558,-1.19375 0.95558,-1.43019 1.91117,-3.52788 1.91116,-4.3382 1.91117,-5.0441 1.91117,-5.63941 2.86675,-9.33174 3.82233,-13.52473 15.28933,-55.63439 5.73349,-19.40285 5.7335,-18.48919 4.77792,-14.69386 4.77791,-13.99282 3.82233,-10.63463 3.82234,-10.03573 2.86675,-7.03729 2.86674,-6.51958 2.86675,-5.90494 1.91117,-3.54714 1.91117,-3.20361 1.91116,-2.83481 1.91117,-2.44329 1.91116,-2.03211 1.91117,-1.60522 1.91117,-1.1674 1.91116,-0.72383 1.91117,-0.28085 1.91116,0.15478 1.91117,0.57644 1.91117,0.97716 1.91116,1.35043 1.91117,1.69101 1.91116,1.99409 1.91117,2.25619 2.86675,3.78126 3.82233,5.54951 10.51141,15.70374 2.86675,3.86933 2.86675,3.54915 2.86675,3.19237 2.86675,2.82125 2.86675,2.45634 2.86675,2.11541 2.86675,1.81222 2.86675,1.55415 2.86675,1.3417 3.82233,1.52643 3.82233,1.29108 4.77792,1.36073 5.73349,1.38377 14.33375,3.34734 7.64466,1.77751 4.77792,0.85137 3.82233,0.42634 2.86675,0.13059 2.86675,-0.0522 2.86675,-0.24335 2.86675,-0.43267 3.82233,-0.85035 3.82233,-1.11458 5.7335,-1.97941 6.68908,-2.30705 3.82233,-1.10117 0,0"
           id="path3603"
           style="fill:none;stroke:#64b5cd;stroke-width:2.2750001;stroke-linecap:round;stroke-linejoin:round;stroke-miterlimit:10;stroke-opacity:1;stroke-dasharray:none" /></g></g><g
       id="g3605"><g
         clip-path="url(#clipPath3609)"
         id="g3607"><path
           d="m 113.13693,164.25588 5.7335,-2.10881 7.64466,-2.7883 3.82233,-1.14745 2.86675,-0.65748 2.86675,-0.44838 2.86675,-0.24084 3.82233,-0.0546 4.77792,0.19634 7.64466,0.35363 3.82233,-0.0459 2.86675,-0.21048 2.86675,-0.39458 2.86675,-0.59623 2.86675,-0.79948 3.82233,-1.34605 11.467,-4.42868 2.86675,-0.68683 1.91116,-0.27012 1.91117,-0.10032 1.91116,0.0807 1.91117,0.26778 1.91117,0.45673 1.91116,0.64401 1.91117,0.82651 1.91117,1.00188 2.86674,1.81137 2.86675,2.14833 2.86675,2.44301 3.82233,3.63747 3.82234,3.97316 5.73349,6.35982 9.55583,10.71676 3.82234,3.9482 2.86675,2.71824 2.86674,2.4713 2.86675,2.20998 2.86675,1.95609 2.86675,1.72887 3.82233,2.02187 4.77792,2.21186 4.77791,1.9673 3.82234,1.37386 2.86675,0.85287 2.86674,0.6351 2.86675,0.34818 1.91117,0.0368 1.91117,-0.14545 1.91116,-0.34976 1.91117,-0.57594 1.91116,-0.82326 1.91117,-1.08993 1.91117,-1.37378 1.91116,-1.67088 1.91117,-1.97588 1.91116,-2.28318 1.91117,-2.58583 1.91117,-2.87711 2.86674,-4.82464 2.86675,-5.37118 2.86675,-5.84284 3.82233,-8.4154 3.82234,-9.04301 3.82233,-9.62617 3.82233,-10.17406 4.77792,-13.35429 10.51141,-29.860938 2.86675,-7.54931 2.86675,-6.967749 2.86675,-6.224313 1.91116,-3.670037 1.91117,-3.252227 1.91116,-2.816218 1.91117,-2.372778 1.91117,-1.933348 1.91116,-1.509197 1.91117,-1.110767 1.91116,-0.746855 1.91117,-0.424049 1.91117,-0.145579 1.91116,0.08978 1.91117,0.286838 1.91116,0.454222 2.86675,0.960062 2.86675,1.294508 1.91117,1.075505 1.91116,1.279207 1.91117,1.519738 1.91117,1.801061 1.91116,2.123939 1.91117,2.486549 1.91116,2.889763 1.91117,3.311736 1.91117,3.757388 1.91116,4.361704 1.91117,4.956467 2.86675,8.239954 2.86675,9.120594 2.86675,9.88679 3.82233,14.19097 3.82233,15.16839 3.82233,16.02068 4.77792,21.03964 7.64466,35.01605 5.7335,25.85673 3.82233,16.14571 2.86675,11.1703 2.86675,10.13746 1.91117,6.09039 1.91116,5.49449 1.91117,4.84874 1.91116,4.15658 1.91117,3.42212 1.91117,2.65104 0.95558,1.02725 0.95558,0.82495 0.95558,0.6209 0.95559,0.41593 0.95558,0.21097 0.95558,0.007 0.95559,-0.19509 0.95558,-0.39411 0.95558,-0.58934 0.95559,-0.77989 0.95558,-0.96495 1.91117,-2.45904 1.91116,-3.11451 1.91117,-3.70362 1.91116,-4.22112 1.91117,-4.66436 2.86675,-7.66762 3.82233,-11.12019 4.77792,-14.72093 9.55583,-30.38447 11.46699,-36.4499 5.7335,-17.42107 4.77791,-13.69966 3.82234,-10.23942 2.86675,-7.15711 2.86675,-6.62644 2.86674,-6.01563 1.91117,-3.63058 1.91117,-3.29846 1.91116,-2.94314 1.91117,-2.56634 1.91116,-2.17095 1.91117,-1.76061 1.91117,-1.34033 1.91116,-0.91614 1.91117,-0.49422 1.91116,-0.0814 1.91117,0.31548 1.91117,0.69083 1.91116,1.03925 1.91117,1.35634 1.91116,1.63915 1.91117,1.8851 2.86675,3.20437 2.86675,3.53887 5.7335,7.56688 5.73349,7.47833 3.82234,4.6052 2.86675,3.161 2.86674,2.87306 2.86675,2.56951 2.86675,2.26726 2.86675,1.98147 2.86675,1.72381 2.86675,1.4996 3.82233,1.70721 3.82233,1.43104 3.82234,1.20103 4.77791,1.23723 5.7335,1.22954 21.02283,4.12984 3.82233,0.48163 3.82233,0.25685 3.82233,-0.0137 2.86675,-0.20657 2.86675,-0.37979 3.82233,-0.7639 3.82233,-1.01477 5.7335,-1.81579 2.86675,-0.94652 0,0"
           id="path3613"
           style="fill:none;stroke:#4c72b0;stroke-width:2.2750001;stroke-linecap:round;stroke-linejoin:round;stroke-miterlimit:10;stroke-opacity:1;stroke-dasharray:none" /></g></g><g
       id="g3615"><g
         clip-path="url(#clipPath3619)"
         id="g3617"><path
           d="m 113.13693,164.34184 3.82233,-1.15044 3.82233,-1.39379 6.68908,-2.7373 4.77792,-1.90217 3.82233,-1.27768 2.86675,-0.72777 2.86675,-0.49493 2.86675,-0.25925 2.86675,-0.0445 3.82233,0.20489 5.7335,0.61726 5.7335,0.58556 3.82233,0.15004 2.86675,-0.10299 2.86675,-0.33699 2.86674,-0.60099 2.86675,-0.87502 2.86675,-1.12984 3.82233,-1.80409 6.68909,-3.30301 2.86674,-1.15681 1.91117,-0.60042 1.91117,-0.43351 1.91116,-0.2471 1.91117,-0.0475 1.91117,0.15943 1.91116,0.36882 1.91117,0.57635 1.91116,0.77865 1.91117,0.97308 1.91117,1.15751 2.86674,2.05615 2.86675,2.40019 2.86675,2.6971 3.82233,3.97801 3.82234,4.3199 5.73349,6.88814 7.64467,9.23442 3.82233,4.28233 2.86675,2.95109 2.86675,2.68902 2.86675,2.41616 2.86675,2.15511 3.82233,2.52693 3.82233,2.24271 7.64467,4.15029 9.55583,5.0484 2.86674,1.31728 2.86675,1.07911 1.91117,0.53181 1.91117,0.33928 1.91116,0.10848 1.91117,-0.16058 1.91116,-0.46697 1.91117,-0.80771 1.91117,-1.17766 1.91116,-1.57078 1.91117,-1.97876 1.91116,-2.39206 1.91117,-2.80152 1.91117,-3.19727 1.91116,-3.57042 2.86675,-5.98966 2.86675,-6.64416 2.86675,-7.17428 3.82233,-10.1951 4.77792,-13.45911 6.68908,-19.63373 9.55583,-28.09932 3.82233,-10.556133 2.86675,-7.368855 2.86675,-6.736843 1.91116,-4.073249 1.91117,-3.699594 1.91117,-3.300029 1.91116,-2.883374 1.91117,-2.459416 1.91116,-2.038275 1.91117,-1.630148 1.91117,-1.244573 1.91116,-0.889786 1.91117,-0.57167 1.91116,-0.293703 1.91117,-0.05662 1.91117,0.142955 1.91116,0.311467 2.86675,0.737316 2.86675,1.040865 2.86675,1.372818 1.91116,1.140229 1.91117,1.348853 1.91117,1.59651 0.95558,0.905451 1.91117,2.285272 1.91116,2.626576 1.91117,3.007886 1.91116,3.421174 1.91117,3.857032 1.91117,4.304163 1.91116,4.749971 2.86675,7.928224 2.86675,8.811606 2.86675,9.5776 3.82233,13.74841 3.82233,14.63055 4.77792,19.20849 7.64466,31.89902 5.7335,23.69352 3.82233,15.01102 2.86675,10.57818 2.86675,9.83871 2.86675,8.98392 2.86675,8.03443 1.91116,4.78699 1.91117,4.30223 1.91117,3.79116 1.91116,3.25355 1.91117,2.6898 1.91117,2.10259 0.95558,0.82518 0.95558,0.67204 0.95558,0.51761 0.95559,0.36244 0.95558,0.20707 0.95558,0.0521 0.95559,-0.10176 0.95558,-0.25411 0.95558,-0.40434 0.95559,-0.55191 0.95558,-0.69628 1.91116,-1.81006 1.91117,-2.33634 1.91117,-2.82126 1.91116,-3.26015 1.91117,-3.65065 2.86675,-6.1033 2.86675,-6.72354 3.82233,-9.72155 3.82233,-10.41076 4.77792,-13.80583 5.73349,-17.44628 12.42258,-38.2265 3.82234,-10.98536 3.82233,-10.28155 2.86675,-7.15652 2.86675,-6.61501 2.86674,-6.01446 2.86675,-5.35229 1.91117,-3.1688 1.91117,-2.82725 1.91116,-2.46795 1.91117,-2.09343 1.91116,-1.70716 1.91117,-1.31373 1.91117,-0.91896 1.91116,-0.52883 1.91117,-0.14926 1.91116,0.21369 1.91117,0.55482 1.91117,0.86982 1.91116,1.15474 1.91117,1.40683 1.91116,1.62439 2.86675,2.76623 3.82233,4.11935 14.33375,16.02381 3.82233,3.68132 2.86675,2.48689 2.86675,2.24236 2.86675,2.00416 2.86675,1.78213 3.82233,2.06835 3.82233,1.76334 3.82233,1.49837 3.82234,1.26002 3.82233,1.0474 4.77791,1.07446 7.64467,1.43896 9.55583,1.61017 4.77791,0.62417 3.82234,0.32283 3.82233,0.10344 3.82233,-0.16545 3.82233,-0.4562 3.82233,-0.73538 3.82234,-0.9753 1.91116,-0.55974 0,0"
           id="path3623"
           style="fill:none;stroke:#55a868;stroke-width:2.2750001;stroke-linecap:round;stroke-linejoin:round;stroke-miterlimit:10;stroke-opacity:1;stroke-dasharray:none" /></g></g><g
       id="g3625"><g
         clip-path="url(#clipPath3629)"
         id="g3627"><path
           d="m 113.13693,164.47916 2.86675,-0.46219 2.86675,-0.68236 2.86675,-0.87804 3.82233,-1.42228 5.7335,-2.45792 6.68908,-2.88622 3.82233,-1.41929 2.86675,-0.86349 2.86675,-0.64992 2.86675,-0.41734 2.86675,-0.18513 2.86674,0.0291 3.82234,0.31615 4.77791,0.69221 6.68908,1.03971 2.86675,0.27624 2.86675,0.0678 2.86675,-0.2071 1.91117,-0.31645 1.91116,-0.47029 2.86675,-0.99606 2.86675,-1.31797 2.86675,-1.56989 9.55583,-5.49418 2.86675,-1.19959 1.91116,-0.57694 1.91117,-0.37321 1.91117,-0.15533 1.91116,0.0704 1.91117,0.29834 1.91116,0.52404 1.91117,0.74393 1.91117,0.95532 1.91116,1.15627 1.91117,1.34543 2.86675,2.34514 2.86675,2.69878 2.86675,3.00918 3.82233,4.42057 3.82233,4.7855 6.68908,8.83429 5.7335,7.44689 3.82233,4.59771 2.86675,3.16357 2.86675,2.8861 2.86675,2.602 2.86675,2.33417 3.82233,2.76371 4.77791,3.09561 8.60025,5.48576 6.68908,4.64886 4.77792,3.23499 2.86675,1.66332 1.91116,0.89982 1.91117,0.67406 1.91116,0.39623 1.91117,0.0672 1.91117,-0.31067 1.91116,-0.73311 1.91117,-1.19288 1.91116,-1.68143 1.91117,-2.1887 1.91117,-2.70232 1.91116,-3.20988 1.91117,-3.69939 1.91116,-4.15893 1.91117,-4.57891 2.86675,-7.55256 2.86675,-8.21764 3.82233,-11.68706 6.68908,-21.43358 7.64467,-24.41547 4.77791,-14.54366 3.82233,-10.919292 2.86675,-7.608316 2.86675,-6.978942 2.86675,-6.235899 1.91117,-3.69598 1.91116,-3.301832 1.91117,-2.894499 1.91116,-2.482107 1.91117,-2.073572 1.91117,-1.677643 1.91116,-1.302713 1.91117,-0.956261 1.91116,-0.644074 1.91117,-0.369567 1.91117,-0.133029 1.91116,0.06805 1.91117,0.238273 2.86675,0.627108 2.86675,0.908713 0.95558,0.366508 2.86675,1.702824 2.86675,1.94486 1.91116,1.496507 1.91117,1.709916 1.91117,1.968768 1.91116,2.275757 1.91117,2.628801 1.91116,3.02281 1.91117,3.449143 1.91117,3.895233 1.91116,4.34693 1.91117,4.789821 2.86675,7.965392 2.86675,8.801652 2.86675,9.50448 3.82233,13.52833 4.77791,17.85754 15.28933,58.21005 3.82233,13.35161 2.86675,9.35181 2.86675,8.69522 2.86675,7.98772 2.86675,7.24701 2.86675,6.47649 1.91116,3.87137 1.91117,3.49754 1.91117,3.10649 1.91116,2.69672 1.91117,2.26748 1.91116,1.81993 1.91117,1.3567 1.91117,0.88099 0.95558,0.2595 0.95558,0.13823 0.95559,0.0169 0.95558,-0.10415 0.95558,-0.22447 1.91117,-0.805 1.91116,-1.26721 1.91117,-1.70952 1.91117,-2.12705 1.91116,-2.51635 1.91117,-2.87647 1.91116,-3.2083 2.86675,-5.37986 2.86675,-6.00093 2.86675,-6.57144 2.86675,-7.10059 3.82233,-10.20691 3.82233,-10.89852 5.7335,-17.11044 6.68908,-19.92012 3.82234,-10.80906 3.82233,-10.1175 2.86675,-7.04246 2.86675,-6.52035 2.86674,-5.95444 2.86675,-5.3422 1.91117,-3.19564 1.91117,-2.88375 1.91116,-2.55543 1.91117,-2.21208 1.91116,-1.85669 1.91117,-1.49352 1.91117,-1.12757 1.91116,-0.76485 1.91117,-0.41121 1.91116,-0.072 1.91117,0.24752 1.91117,0.54344 1.91116,0.81276 1.91117,1.053 1.91116,1.2627 2.86675,2.21935 2.86675,2.51645 4.77792,4.58671 8.60024,8.40902 3.82234,3.45073 3.82233,3.15177 3.82233,2.81993 3.82233,2.48804 3.82233,2.17915 3.82234,1.9041 3.82233,1.65956 3.82233,1.43271 3.82233,1.21664 4.77792,1.24643 4.77791,1.00331 5.7335,0.98102 5.7335,0.78843 4.77791,0.48097 3.82234,0.21618 3.82233,0.009 3.82233,-0.23913 3.82233,-0.50384 2.86675,-0.5485 0,0"
           id="path3633"
           style="fill:none;stroke:#c44e52;stroke-width:2.2750001;stroke-linecap:round;stroke-linejoin:round;stroke-miterlimit:10;stroke-opacity:1;stroke-dasharray:none" /></g></g><g
       id="g3635"><g
         clip-path="url(#clipPath3639)"
         id="g3637"><path
           d="m 113.13693,164.63567 2.86675,0.0108 2.86675,-0.22264 2.86675,-0.46459 2.86674,-0.70257 2.86675,-0.91801 3.82234,-1.49008 4.77791,-2.12758 9.55583,-4.34582 3.82233,-1.47937 2.86675,-0.91663 2.86675,-0.71481 2.86675,-0.4939 2.86675,-0.26698 2.86675,-0.0465 2.86675,0.15716 3.82233,0.47816 4.77791,0.88314 5.7335,1.0694 2.86675,0.33635 2.86675,0.0796 1.91117,-0.13113 1.91116,-0.3011 1.91117,-0.48292 1.91116,-0.66861 1.91117,-0.84855 2.86675,-1.57356 2.86675,-1.84925 8.60025,-5.79832 2.86675,-1.51298 1.91116,-0.78299 1.91117,-0.57394 1.91116,-0.34852 1.91117,-0.1132 1.91117,0.12675 1.91116,0.36696 1.91117,0.60414 1.91116,0.83575 1.91117,1.05975 1.91117,1.2745 1.91116,1.47878 2.86675,2.57569 2.86675,2.9667 2.86675,3.31139 3.82233,4.86202 3.82233,5.24331 14.33375,20.14251 3.82233,4.75031 2.86675,3.25305 2.86675,2.97064 2.86675,2.69553 3.82233,3.22216 4.77791,3.62683 7.64467,5.70096 4.77791,3.91016 9.55583,8.1345 2.86675,2.01003 1.91117,1.06274 1.91116,0.76839 1.91117,0.41124 0.95558,0.0528 0.95559,-0.0586 0.95558,-0.17676 0.95558,-0.30132 0.95559,-0.43164 0.95558,-0.5671 0.95558,-0.707 1.91117,-1.84783 1.91116,-2.44208 1.91117,-3.04278 1.91117,-3.63494 1.91116,-4.20438 1.91117,-4.73748 1.91116,-5.22228 2.86675,-8.61452 2.86675,-9.35472 3.82233,-13.2258 12.42258,-43.64256 3.82234,-12.45754 3.82233,-11.621786 2.86675,-8.040409 2.86675,-7.353737 2.86674,-6.572921 1.91117,-3.90875 1.91117,-3.510063 1.91116,-3.101146 1.91117,-2.689792 1.91116,-2.283705 1.91117,-1.890277 1.91117,-1.51647 1.91116,-1.167759 1.91117,-0.848304 1.91116,-0.563929 1.91117,-0.307416 1.91117,-0.08628 0.95558,0.03125 4.77792,1.969239 4.77791,2.132843 3.82233,1.910436 2.86675,1.673632 1.91117,1.3031 1.91116,1.510571 1.91117,1.771871 1.91117,2.086956 1.91116,2.450035 1.91117,2.851749 1.91116,3.280906 1.91117,3.724852 1.91117,4.171054 1.91116,4.607804 2.86675,7.684221 2.86675,8.515585 2.86675,9.20998 3.82233,13.08847 5.7335,20.59392 7.64466,27.47022 4.77792,16.25767 3.82233,12.13904 2.86675,8.4945 2.86675,7.92852 2.86675,7.3458 2.86675,6.75951 2.86675,6.17288 2.86674,5.57959 2.86675,4.9672 1.91117,2.95473 1.91117,2.65375 1.91116,2.33666 1.91117,2.00179 1.91116,1.64901 1.91117,1.279 1.91117,0.89389 1.91116,0.49766 1.91117,0.095 1.91116,-0.30877 1.91117,-0.70792 1.91117,-1.09785 1.91116,-1.47522 1.91117,-1.83801 1.91116,-2.18629 1.91117,-2.52104 1.91117,-2.84392 1.91116,-3.1567 2.86675,-5.30083 2.86675,-5.94796 2.86675,-6.5467 2.86675,-7.07551 3.82233,-10.09129 5.7335,-15.96113 6.68908,-18.60565 3.82233,-10.07295 3.82233,-9.40676 2.86675,-6.53303 2.86675,-6.03287 2.86675,-5.48663 2.86675,-4.89091 1.91117,-2.9039 1.91116,-2.60111 1.91117,-2.28525 1.91116,-1.95906 1.91117,-1.62646 1.91117,-1.29198 1.91116,-0.96024 1.91117,-0.63622 1.91116,-0.32445 1.91117,-0.0288 1.91117,0.24714 1.91116,0.50034 1.91117,0.72883 1.91116,0.93078 2.86675,1.71474 2.86675,2.01492 3.82233,3.00002 15.28933,12.43605 3.82233,2.69362 3.82234,2.43223 3.82233,2.17275 3.82233,1.93727 3.82233,1.72963 4.77792,1.89269 3.82233,1.30019 3.82233,1.10835 4.77792,1.12694 4.77791,0.86817 4.77792,0.63533 4.77791,0.40631 4.77792,0.14871 3.82233,-0.10033 3.82233,-0.32386 0,0"
           id="path3643"
           style="fill:none;stroke:#8172b2;stroke-width:2.2750001;stroke-linecap:round;stroke-linejoin:round;stroke-miterlimit:10;stroke-opacity:1;stroke-dasharray:none" /></g></g><g
       id="g3645"><g
         clip-path="url(#clipPath3649)"
         id="g3647"><g
           transform="translate(398.85625,440.57844)"
           id="g3653"><g
             id="g3655"><g
               clip-path="url(#clipPath3659)"
               id="g3657"><path
                 d="m 0,-4.55 c 1.2066741,0 2.3640884,0.4794167 3.2173359,1.3326641 C 4.0705833,-2.3640884 4.55,-1.2066741 4.55,0 4.55,1.2066741 4.0705833,2.3640884 3.2173359,3.2173359 2.3640884,4.0705833 1.2066741,4.55 0,4.55 -1.2066741,4.55 -2.3640884,4.0705833 -3.2173359,3.2173359 -4.0705833,2.3640884 -4.55,1.2066741 -4.55,0 c 0,-1.2066741 0.4794167,-2.3640884 1.3326641,-3.2173359 C -2.3640884,-4.0705833 -1.2066741,-4.55 0,-4.55 z"
                 id="path3663"
                 style="fill:#7a1919;fill-opacity:1;fill-rule:nonzero;stroke:#000000;stroke-width:0.01;stroke-linecap:butt;stroke-linejoin:round;stroke-miterlimit:10;stroke-opacity:1;stroke-dasharray:none" /></g></g><g
             transform="translate(9.5558301,-17.141091)"
             id="g3665"><g
               id="g3667"><g
                 clip-path="url(#clipPath3671)"
                 id="g3669"><path
                   d="m 0,-4.55 c 1.2066741,0 2.3640884,0.4794167 3.2173359,1.3326641 C 4.0705833,-2.3640884 4.55,-1.2066741 4.55,0 4.55,1.2066741 4.0705833,2.3640884 3.2173359,3.2173359 2.3640884,4.0705833 1.2066741,4.55 0,4.55 -1.2066741,4.55 -2.3640884,4.0705833 -3.2173359,3.2173359 -4.0705833,2.3640884 -4.55,1.2066741 -4.55,0 c 0,-1.2066741 0.4794167,-2.3640884 1.3326641,-3.2173359 C -2.3640884,-4.0705833 -1.2066741,-4.55 0,-4.55 z"
                   id="path3675"
                   style="fill:#7a1919;fill-opacity:1;fill-rule:nonzero;stroke:#000000;stroke-width:0.01;stroke-linecap:butt;stroke-linejoin:round;stroke-miterlimit:10;stroke-opacity:1;stroke-dasharray:none" /></g></g><g
               transform="translate(11.466996,-22.733858)"
               id="g3677"><g
                 id="g3679"><g
                   clip-path="url(#clipPath3683)"
                   id="g3681"><path
                     d="m 0,-4.55 c 1.2066741,0 2.3640884,0.4794167 3.2173359,1.3326641 C 4.0705833,-2.3640884 4.55,-1.2066741 4.55,0 4.55,1.2066741 4.0705833,2.3640884 3.2173359,3.2173359 2.3640884,4.0705833 1.2066741,4.55 0,4.55 -1.2066741,4.55 -2.3640884,4.0705833 -3.2173359,3.2173359 -4.0705833,2.3640884 -4.55,1.2066741 -4.55,0 c 0,-1.2066741 0.4794167,-2.3640884 1.3326641,-3.2173359 C -2.3640884,-4.0705833 -1.2066741,-4.55 0,-4.55 z"
                     id="path3687"
                     style="fill:#7a1919;fill-opacity:1;fill-rule:nonzero;stroke:#000000;stroke-width:0.01;stroke-linecap:butt;stroke-linejoin:round;stroke-miterlimit:10;stroke-opacity:1;stroke-dasharray:none" /></g></g><g
                 transform="translate(11.466996,-24.195964)"
                 id="g3689"><g
                   id="g3691"><g
                     clip-path="url(#clipPath3695)"
                     id="g3693"><path
                       d="m 0,-4.55 c 1.2066741,0 2.3640884,0.4794167 3.2173359,1.3326641 C 4.0705833,-2.3640884 4.55,-1.2066741 4.55,0 4.55,1.2066741 4.0705833,2.3640884 3.2173359,3.2173359 2.3640884,4.0705833 1.2066741,4.55 0,4.55 -1.2066741,4.55 -2.3640884,4.0705833 -3.2173359,3.2173359 -4.0705833,2.3640884 -4.55,1.2066741 -4.55,0 c 0,-1.2066741 0.4794167,-2.3640884 1.3326641,-3.2173359 C -2.3640884,-4.0705833 -1.2066741,-4.55 0,-4.55 z"
                       id="path3699"
                       style="fill:#7a1919;fill-opacity:1;fill-rule:nonzero;stroke:#000000;stroke-width:0.01;stroke-linecap:butt;stroke-linejoin:round;stroke-miterlimit:10;stroke-opacity:1;stroke-dasharray:none" /></g></g><g
                   transform="translate(11.466996,-23.814688)"
                   id="g3701"><g
                     id="g3703"><g
                       clip-path="url(#clipPath3707)"
                       id="g3705"><path
                         d="m 0,-4.55 c 1.2066741,0 2.3640884,0.4794167 3.2173359,1.3326641 C 4.0705833,-2.3640884 4.55,-1.2066741 4.55,0 4.55,1.2066741 4.0705833,2.3640884 3.2173359,3.2173359 2.3640884,4.0705833 1.2066741,4.55 0,4.55 -1.2066741,4.55 -2.3640884,4.0705833 -3.2173359,3.2173359 -4.0705833,2.3640884 -4.55,1.2066741 -4.55,0 c 0,-1.2066741 0.4794167,-2.3640884 1.3326641,-3.2173359 C -2.3640884,-4.0705833 -1.2066741,-4.55 0,-4.55 z"
                         id="path3711"
                         style="fill:#7a1919;fill-opacity:1;fill-rule:nonzero;stroke:#000000;stroke-width:0.01;stroke-linecap:butt;stroke-linejoin:round;stroke-miterlimit:10;stroke-opacity:1;stroke-dasharray:none" /></g></g><g
                     transform="translate(11.466996,-22.167467)"
                     id="g3713"><g
                       id="g3715"><g
                         clip-path="url(#clipPath3719)"
                         id="g3717"><path
                           d="m 0,-4.55 c 1.2066741,0 2.3640884,0.4794167 3.2173359,1.3326641 C 4.0705833,-2.3640884 4.55,-1.2066741 4.55,0 4.55,1.2066741 4.0705833,2.3640884 3.2173359,3.2173359 2.3640884,4.0705833 1.2066741,4.55 0,4.55 -1.2066741,4.55 -2.3640884,4.0705833 -3.2173359,3.2173359 -4.0705833,2.3640884 -4.55,1.2066741 -4.55,0 c 0,-1.2066741 0.4794167,-2.3640884 1.3326641,-3.2173359 C -2.3640884,-4.0705833 -1.2066741,-4.55 0,-4.55 z"
                           id="path3723"
                           style="fill:#7a1919;fill-opacity:1;fill-rule:nonzero;stroke:#000000;stroke-width:0.01;stroke-linecap:butt;stroke-linejoin:round;stroke-miterlimit:10;stroke-opacity:1;stroke-dasharray:none" /></g></g><g
                       transform="translate(12.422579,-19.769945)"
                       id="g3725"><g
                         id="g3727"><g
                           clip-path="url(#clipPath3731)"
                           id="g3729"><path
                             d="m 0,-4.55 c 1.2066741,0 2.3640884,0.4794167 3.2173359,1.3326641 C 4.0705833,-2.3640884 4.55,-1.2066741 4.55,0 4.55,1.2066741 4.0705833,2.3640884 3.2173359,3.2173359 2.3640884,4.0705833 1.2066741,4.55 0,4.55 -1.2066741,4.55 -2.3640884,4.0705833 -3.2173359,3.2173359 -4.0705833,2.3640884 -4.55,1.2066741 -4.55,0 c 0,-1.2066741 0.4794167,-2.3640884 1.3326641,-3.2173359 C -2.3640884,-4.0705833 -1.2066741,-4.55 0,-4.55 z"
                             id="path3735"
                             style="fill:#7a1919;fill-opacity:1;fill-rule:nonzero;stroke:#000000;stroke-width:0.01;stroke-linecap:butt;stroke-linejoin:round;stroke-miterlimit:10;stroke-opacity:1;stroke-dasharray:none" /></g></g><g
                         transform="translate(12.422579,-16.822564)"
                         id="g3737"><g
                           id="g3739"><g
                             clip-path="url(#clipPath3743)"
                             id="g3741"><path
                               d="m 0,-4.55 c 1.2066741,0 2.3640884,0.4794167 3.2173359,1.3326641 C 4.0705833,-2.3640884 4.55,-1.2066741 4.55,0 4.55,1.2066741 4.0705833,2.3640884 3.2173359,3.2173359 2.3640884,4.0705833 1.2066741,4.55 0,4.55 -1.2066741,4.55 -2.3640884,4.0705833 -3.2173359,3.2173359 -4.0705833,2.3640884 -4.55,1.2066741 -4.55,0 c 0,-1.2066741 0.4794167,-2.3640884 1.3326641,-3.2173359 C -2.3640884,-4.0705833 -1.2066741,-4.55 0,-4.55 z"
                               id="path3747"
                               style="fill:#7a1919;fill-opacity:1;fill-rule:nonzero;stroke:#000000;stroke-width:0.01;stroke-linecap:butt;stroke-linejoin:round;stroke-miterlimit:10;stroke-opacity:1;stroke-dasharray:none" /></g></g><g
                           transform="translate(13.378162,-14.137281)"
                           id="g3749"><g
                             id="g3751"><g
                               clip-path="url(#clipPath3755)"
                               id="g3753"><path
                                 d="m 0,-4.55 c 1.2066741,0 2.3640884,0.4794167 3.2173359,1.3326641 C 4.0705833,-2.3640884 4.55,-1.2066741 4.55,0 4.55,1.2066741 4.0705833,2.3640884 3.2173359,3.2173359 2.3640884,4.0705833 1.2066741,4.55 0,4.55 -1.2066741,4.55 -2.3640884,4.0705833 -3.2173359,3.2173359 -4.0705833,2.3640884 -4.55,1.2066741 -4.55,0 c 0,-1.2066741 0.4794167,-2.3640884 1.3326641,-3.2173359 C -2.3640884,-4.0705833 -1.2066741,-4.55 0,-4.55 z"
                                 id="path3759"
                                 style="fill:#7a1919;fill-opacity:1;fill-rule:nonzero;stroke:#000000;stroke-width:0.01;stroke-linecap:butt;stroke-linejoin:round;stroke-miterlimit:10;stroke-opacity:1;stroke-dasharray:none" /></g></g><g
                             transform="translate(12.422579,-11.986445)"
                             id="g3761"><g
                               id="g3763"><g
                                 clip-path="url(#clipPath3767)"
                                 id="g3765"><path
                                   d="m 0,-4.55 c 1.2066741,0 2.3640884,0.4794167 3.2173359,1.3326641 C 4.0705833,-2.3640884 4.55,-1.2066741 4.55,0 4.55,1.2066741 4.0705833,2.3640884 3.2173359,3.2173359 2.3640884,4.0705833 1.2066741,4.55 0,4.55 -1.2066741,4.55 -2.3640884,4.0705833 -3.2173359,3.2173359 -4.0705833,2.3640884 -4.55,1.2066741 -4.55,0 c 0,-1.2066741 0.4794167,-2.3640884 1.3326641,-3.2173359 C -2.3640884,-4.0705833 -1.2066741,-4.55 0,-4.55 z"
                                   id="path3771"
                                   style="fill:#7a1919;fill-opacity:1;fill-rule:nonzero;stroke:#000000;stroke-width:0.01;stroke-linecap:butt;stroke-linejoin:round;stroke-miterlimit:10;stroke-opacity:1;stroke-dasharray:none" /></g></g></g></g></g></g></g></g></g></g></g></g></g></g><g
       id="g3773"><g
         clip-path="url(#clipPath3777)"
         id="g3775"><path
           d="m 398.85625,440.57844 4.77792,-11.74003 4.77791,-11.24064 4.77792,-10.7625 4.77791,-10.30469 5.7335,-11.78869 5.7335,-11.18953 5.73349,-10.62083 5.7335,-10.08102 5.7335,-9.56866 5.7335,-9.08233 5.7335,-8.62072 5.73349,-8.18258 5.7335,-7.7667 5.7335,-7.37195 5.7335,-6.99728 5.7335,-6.64165 5.7335,-6.30408 5.73349,-5.98368 5.7335,-5.67956 5.7335,-5.3909 5.7335,-5.1169 5.7335,-4.85684 6.68908,-5.35522 6.68908,-5.03904 6.68908,-4.74153 6.68908,-4.46158 6.68908,-4.19817 6.68908,-3.95031 6.68908,-3.71708 7.64467,-3.98012 7.64466,-3.71272 7.64467,-3.46328 7.64466,-3.2306 8.60025,-3.37571 8.60024,-3.12166 8.60025,-2.88672 8.60025,-2.66946 9.55583,-2.73111 9.55583,-2.50371 10.51141,-2.51397 10.51142,-2.28471 11.46699,-2.25543 0,0"
           id="path3781"
           style="fill:none;stroke:#3333ad;stroke-width:2;stroke-linecap:round;stroke-linejoin:round;stroke-miterlimit:10;stroke-opacity:1;stroke-dasharray:none" /></g></g><g
       id="g3783"><path
         d="m 579.71188,462.8775 142.8,0 0,26.4 -142.8,0 0,-26.4 z"
         id="path3785"
         style="fill:#eaeaf2;fill-opacity:1;fill-rule:nonzero;stroke:#ffffff;stroke-width:0.38999999;stroke-linecap:butt;stroke-linejoin:miter;stroke-miterlimit:10;stroke-opacity:1;stroke-dasharray:none" /><path
         d="m 584.91187,478.6275 26,0"
         id="path3787"
         style="fill:none;stroke:#3333ad;stroke-width:2;stroke-linecap:round;stroke-linejoin:round;stroke-miterlimit:10;stroke-opacity:1;stroke-dasharray:none" /><g
         transform="translate(621.31187,474.0775)"
         id="g3789"><text
           transform="matrix(1,0,0,-1,0,0.25)"
           id="text3791"><tspan
             x="0 5.7700195 12.619141 19.836426"
             y="0"
             id="tspan3793"
             style="font-size:13px;font-variant:normal;font-weight:normal;writing-mode:lr-tb;fill:#262626;fill-opacity:1;fill-rule:nonzero;stroke:none;font-family:Cmr10;-inkscape-font-specification:Cmr10">exp[</tspan></text>
<text
           transform="matrix(1,0,0,-1,23.435547,0.25)"
           id="text3795"><tspan
             x="0 10.099121"
             y="0"
             id="tspan3797"
             style="font-size:13px;font-variant:normal;font-weight:normal;writing-mode:lr-tb;fill:#262626;fill-opacity:1;fill-rule:nonzero;stroke:none;font-family:Cmsy10;-inkscape-font-specification:Cmsy10">−|</tspan></text>
<text
           transform="matrix(1,0,0,-1,37.133789,0.25)"
           id="text3799"><tspan
             x="0"
             y="0"
             id="tspan3801"
             style="font-size:13px;font-variant:normal;font-weight:normal;writing-mode:lr-tb;fill:#262626;fill-opacity:1;fill-rule:nonzero;stroke:none;font-family:Cmr10;-inkscape-font-specification:Cmr10">∆</tspan></text>
<text
           transform="matrix(1,0,0,-1,47.962891,0.25)"
           id="text3803"><tspan
             x="0"
             y="0"
             id="tspan3805"
             style="font-size:13px;font-variant:normal;font-weight:normal;writing-mode:lr-tb;fill:#262626;fill-opacity:1;fill-rule:nonzero;stroke:none;font-family:Cmmi10;-inkscape-font-specification:Cmmi10">t</tspan></text>
<text
           transform="matrix(1,0,0,-1,52.653809,-3.0662187)"
           id="text3807"><tspan
             x="0 4.5766602 8.8067379 13.61001"
             y="0"
             id="tspan3809"
             style="font-size:9.10000038px;font-variant:normal;font-weight:normal;writing-mode:lr-tb;fill:#262626;fill-opacity:1;fill-rule:nonzero;stroke:none;font-family:Cmmi10;-inkscape-font-specification:Cmmi10">peak</tspan></text>
<text
           transform="matrix(1,0,0,-1,70.995996,0.25)"
           id="text3811"><tspan
             x="0 6.5"
             y="0"
             id="tspan3813"
             style="font-size:13px;font-variant:normal;font-weight:normal;writing-mode:lr-tb;fill:#262626;fill-opacity:1;fill-rule:nonzero;stroke:none;font-family:Cmmi10;-inkscape-font-specification:Cmmi10">/τ</tspan></text>
<text
           transform="matrix(1,0,0,-1,83.177148,-3.0662187)"
           id="text3815"><tspan
             x="0"
             y="0"
             id="tspan3817"
             style="font-size:9.10000038px;font-variant:normal;font-weight:normal;writing-mode:lr-tb;fill:#262626;fill-opacity:1;fill-rule:nonzero;stroke:none;font-family:Cmmi10;-inkscape-font-specification:Cmmi10">c</tspan></text>
<text
           transform="matrix(1,0,0,-1,88.794824,0.25)"
           id="text3819"><tspan
             x="0"
             y="0"
             id="tspan3821"
             style="font-size:13px;font-variant:normal;font-weight:normal;writing-mode:lr-tb;fill:#262626;fill-opacity:1;fill-rule:nonzero;stroke:none;font-family:Cmsy10;-inkscape-font-specification:Cmsy10">|</tspan></text>
<text
           transform="matrix(1,0,0,-1,92.393945,0.25)"
           id="text3823"><tspan
             x="0"
             y="0"
             id="tspan3825"
             style="font-size:13px;font-variant:normal;font-weight:normal;writing-mode:lr-tb;fill:#262626;fill-opacity:1;fill-rule:nonzero;stroke:none;font-family:Cmr10;-inkscape-font-specification:Cmr10">]</tspan></text>
</g></g></g></svg>